<svg display="none" xmlns="http://www.w3.org/2000/svg">

	<symbol viewBox="0 0 32 32" id="close">
		<path
			d="M16.0005 16.9693L11.2111 21.7587C11.0689 21.9009 10.9116 21.9676 10.7391 21.9587C10.5667 21.9498 10.4094 21.8747 10.2671 21.7333C10.1249 21.592 10.0538 21.4307 10.0538 21.2493C10.0538 21.068 10.1249 20.9062 10.2671 20.764L15.0311 16L10.2418 11.244C10.0996 11.1018 10.0329 10.94 10.0418 10.7587C10.0507 10.5773 10.1258 10.416 10.2671 10.2747C10.4094 10.1325 10.5707 10.0613 10.7511 10.0613C10.9325 10.0613 11.0942 10.1325 11.2365 10.2747L16.0005 15.064L20.7565 10.2747C20.8987 10.1325 21.056 10.0613 21.2285 10.0613C21.4009 10.0613 21.5582 10.1325 21.7005 10.2747C21.8471 10.4213 21.9205 10.584 21.9205 10.7627C21.9205 10.9413 21.8471 11.1013 21.7005 11.2427L16.9365 16L21.7258 20.7893C21.868 20.9316 21.9391 21.0889 21.9391 21.2613C21.9391 21.4338 21.868 21.5911 21.7258 21.7333C21.5791 21.88 21.4165 21.9533 21.2378 21.9533C21.0591 21.9533 20.8991 21.88 20.7578 21.7333L16.0005 16.9693Z" />
	</symbol>

</svg>