<svg display="none" xmlns="http://www.w3.org/2000/svg">

	<symbol viewBox="0 0 32 32" id="close">
		<path
			d="M16.0005 16.9693L11.2111 21.7587C11.0689 21.9009 10.9116 21.9676 10.7391 21.9587C10.5667 21.9498 10.4094 21.8747 10.2671 21.7333C10.1249 21.592 10.0538 21.4307 10.0538 21.2493C10.0538 21.068 10.1249 20.9062 10.2671 20.764L15.0311 16L10.2418 11.244C10.0996 11.1018 10.0329 10.94 10.0418 10.7587C10.0507 10.5773 10.1258 10.416 10.2671 10.2747C10.4094 10.1325 10.5707 10.0613 10.7511 10.0613C10.9325 10.0613 11.0942 10.1325 11.2365 10.2747L16.0005 15.064L20.7565 10.2747C20.8987 10.1325 21.056 10.0613 21.2285 10.0613C21.4009 10.0613 21.5582 10.1325 21.7005 10.2747C21.8471 10.4213 21.9205 10.584 21.9205 10.7627C21.9205 10.9413 21.8471 11.1013 21.7005 11.2427L16.9365 16L21.7258 20.7893C21.868 20.9316 21.9391 21.0889 21.9391 21.2613C21.9391 21.4338 21.868 21.5911 21.7258 21.7333C21.5791 21.88 21.4165 21.9533 21.2378 21.9533C21.0591 21.9533 20.8991 21.88 20.7578 21.7333L16.0005 16.9693Z" />
	</symbol>

	<symbol id="filter" viewBox="0 0 33 32">
		<path
			d="M15.2437 22.6667C15.0543 22.6667 14.8957 22.6027 14.7677 22.4747C14.6406 22.3467 14.577 22.188 14.577 21.9987C14.577 21.8103 14.6406 21.652 14.7677 21.524C14.8957 21.3969 15.0543 21.3334 15.2437 21.3334H17.7303C17.9197 21.3334 18.0779 21.3974 18.205 21.5254C18.3321 21.6534 18.3961 21.812 18.397 22.0014C18.397 22.1898 18.333 22.348 18.205 22.476C18.0779 22.6032 17.9197 22.6667 17.7303 22.6667H15.2437ZM10.2437 16.6667C10.0543 16.6667 9.89567 16.6027 9.76767 16.4747C9.64056 16.3467 9.57701 16.188 9.57701 15.9987C9.57701 15.8094 9.64056 15.6512 9.76767 15.524C9.89567 15.3969 10.0543 15.3334 10.2437 15.3334H22.7303C22.9197 15.3334 23.0779 15.3974 23.205 15.5254C23.333 15.6534 23.397 15.812 23.397 16.0014C23.397 16.1907 23.333 16.3489 23.205 16.476C23.0779 16.6032 22.9197 16.6667 22.7303 16.6667H10.2437ZM6.49967 10.6667C6.31034 10.6667 6.15212 10.6027 6.02501 10.4747C5.8979 10.3467 5.8339 10.188 5.83301 9.99871C5.83301 9.81026 5.89701 9.65204 6.02501 9.52404C6.15301 9.39693 6.31123 9.33337 6.49967 9.33337H26.4997C26.689 9.33337 26.8472 9.39737 26.9743 9.52537C27.1023 9.65337 27.1663 9.81204 27.1663 10.0014C27.1663 10.1898 27.1023 10.348 26.9743 10.476C26.8472 10.6032 26.689 10.6667 26.4997 10.6667H6.49967Z" />
	</symbol>

	<symbol id="arrow-left" viewBox="0 0 19 16">
		<path fill-rule="evenodd" clip-rule="evenodd"
			d="M18.7845 8C18.7845 8.30305 18.6641 8.59369 18.4498 8.80798C18.2355 9.02227 17.9449 9.14265 17.6418 9.14265H4.40305L9.3096 14.0469C9.41584 14.1531 9.50011 14.2793 9.5576 14.4181C9.6151 14.5569 9.64469 14.7057 9.64469 14.8559C9.64469 15.0062 9.6151 15.1549 9.5576 15.2937C9.50011 15.4325 9.41584 15.5587 9.3096 15.6649C9.20336 15.7711 9.07723 15.8554 8.93843 15.9129C8.79962 15.9704 8.65084 16 8.5006 16C8.35035 16 8.20158 15.9704 8.06277 15.9129C7.92396 15.8554 7.79784 15.7711 7.6916 15.6649L0.835697 8.809C0.729285 8.70286 0.64486 8.57676 0.587255 8.43794C0.529651 8.29912 0.5 8.1503 0.5 8C0.5 7.8497 0.529651 7.70088 0.587255 7.56206C0.64486 7.42324 0.729285 7.29715 0.835697 7.191L7.6916 0.335098C7.90616 0.120538 8.19717 0 8.5006 0C8.80403 0 9.09504 0.120538 9.3096 0.335098C9.52416 0.549657 9.64469 0.840662 9.64469 1.14409C9.64469 1.44753 9.52416 1.73853 9.3096 1.95309L4.40305 6.85735H17.6418C17.9449 6.85735 18.2355 6.97774 18.4498 7.19202C18.6641 7.40631 18.7845 7.69695 18.7845 8Z" />
	</symbol>

	<symbol id="arrow-right" viewBox="0 0 19 16">
		<path fill-rule="evenodd" clip-rule="evenodd"
			d="M0.5 8C0.5 7.69695 0.620386 7.40631 0.834675 7.19202C1.04896 6.97774 1.3396 6.85735 1.64265 6.85735H14.8814L9.97486 1.95309C9.7603 1.73853 9.63976 1.44753 9.63976 1.14409C9.63976 0.840662 9.7603 0.549657 9.97486 0.335098C10.1894 0.120538 10.4804 0 10.7839 0C11.0873 0 11.3783 0.120538 11.5929 0.335098L18.4488 7.191C18.5552 7.29715 18.6396 7.42324 18.6972 7.56206C18.7548 7.70088 18.7845 7.8497 18.7845 8C18.7845 8.1503 18.7548 8.29912 18.6972 8.43794C18.6396 8.57676 18.5552 8.70286 18.4488 8.809L11.5929 15.6649C11.3783 15.8795 11.0873 16 10.7839 16C10.4804 16 10.1894 15.8795 9.97486 15.6649C9.7603 15.4503 9.63976 15.1593 9.63976 14.8559C9.63976 14.5525 9.7603 14.2615 9.97486 14.0469L14.8814 9.14265H1.64265C1.3396 9.14265 1.04896 9.02227 0.834675 8.80798C0.620386 8.59369 0.5 8.30305 0.5 8Z"/>
	</symbol>

</svg>