<svg width="117" height="64" viewBox="0 0 117 64" fill="none" xmlns="http://www.w3.org/2000/svg">
<path d="M71.6074 2.90906H33.1129C32.7904 2.90906 32.5289 3.16955 32.5289 3.49088V35.3631M71.6074 2.90906V62.0909M71.6074 2.90906H78.4594C78.627 2.90906 78.7871 2.981 78.898 3.10653L102.638 29.9854C102.732 30.0917 102.784 30.2283 102.784 30.3698V61.5091C102.784 61.8302 102.522 62.0909 102.2 62.0909H71.6074M32.5289 35.3631H45.1108C45.4333 35.3631 45.6948 35.6236 45.6948 35.9449V53.413C45.6948 53.7344 45.9562 53.9949 46.2788 53.9949H65.9402C66.2626 53.9949 66.5242 53.7344 66.5242 53.413V22.9969C66.5242 22.6756 66.2626 22.4151 65.9402 22.4151H32.5289M32.5289 35.3631H25.1521C24.9714 35.3631 24.8008 35.4464 24.6903 35.5889L14.7217 48.4232C14.6426 48.5251 14.5996 48.6503 14.5996 48.7793V62.0909M71.6074 62.0909H66.5242H43.807M43.807 62.0909V38.6633C43.807 38.342 43.5455 38.0815 43.223 38.0815H39.9422C39.7384 38.0815 39.5492 38.1874 39.4433 38.361L32.6139 49.5498C32.5583 49.6409 32.5289 49.7455 32.5289 49.8521V62.0909M43.807 62.0909H32.5289M74.3183 11.3169V5.50874C74.3183 5.18741 74.5793 4.92693 74.9023 4.92693H77.1005C77.2704 4.92693 77.4316 5.00062 77.5426 5.1288L99.9308 30.9955C100.022 31.1011 100.073 31.2359 100.073 31.3754V58.8276C100.073 59.1488 99.8111 59.4094 99.4887 59.4094H92.6173M74.3183 11.3169L78.7234 16.0937M74.3183 11.3169V35.3631M92.6173 59.4094H86.1787M92.6173 59.4094V35.3631M78.7234 16.0937L86.1787 24.1776M78.7234 16.0937V37.7515V48.5805V53.9949V59.4094M74.3183 35.3631V58.8276C74.3183 59.1488 74.5793 59.4094 74.9023 59.4094H78.7234M74.3183 35.3631H92.6173M86.1787 59.4094V24.1776M86.1787 59.4094H78.7234M92.6173 35.3631V31.3859C92.6173 31.2401 92.5625 31.0996 92.4632 30.9923L86.1787 24.1776M32.5289 62.0909H25.4496C25.127 62.0909 24.8656 61.8302 24.8656 61.5091V50.2709C24.8656 49.9496 24.6041 49.689 24.2816 49.689H18.6488C18.3262 49.689 18.0648 49.9496 18.0648 50.2709V62.0909" stroke="#242223" stroke-width="1.5" stroke-linecap="round" stroke-linejoin="round"/>
<path d="M37.8789 7.50098H58.8517M61.5878 7.50098H69.1103" stroke="#242223" stroke-width="1.5" stroke-linecap="round" stroke-linejoin="round"/>
</svg>
