<svg width="200" height="110" viewBox="0 0 200 110" fill="none" xmlns="http://www.w3.org/2000/svg">
<path d="M43 105C43 92.5616 43 73.1493 43 73.1493M43 105C69.2008 88.7459 108.017 64.6657 118.458 58.1882C120.103 57.1676 122.162 57.206 123.786 58.2592L146.75 73.1493M43 105C59.8414 105 86.125 105 86.125 105M43 73.1493V44.0786C43 42.3499 43.893 40.7438 45.3614 39.8315L92.8293 10.3403C94.4618 9.32606 96.5311 9.33729 98.1525 10.3692L121.125 24.9898M43 73.1493L62.5312 61.1095L67.4141 58.0995M121.125 24.9898L144.435 39.825C145.877 40.7428 146.75 42.3338 146.75 44.0432V73.1493M121.125 24.9898L101.594 37.0297L91.8281 43.0496L86.9453 46.0596L82.0625 49.0696L79.6211 50.5746M146.75 73.1493V100.092M86.125 105H144.75C145.855 105 146.75 104.105 146.75 103V100.092M86.125 105L94.875 99.9387M146.75 100.092L123.65 86.2657C122.091 85.3331 120.15 85.3186 118.578 86.2278L112.375 89.816L103.625 94.8773M72.2969 55.0895L74.7383 53.5845" stroke="#242223" stroke-width="1.5" stroke-linecap="round"/>
<path d="M94.5 9.5L109.642 5.2413C110.188 5.08771 110.774 5.17325 111.253 5.47661L155.674 33.5892C157.122 34.5058 158 36.1003 158 37.8142V50.8589M146.5 105L157.012 98.8312C157.624 98.4721 158 97.8157 158 97.1063V82.454M158 66.6564V58.7577" stroke="#242223" stroke-width="1.5" stroke-linecap="round"/>
</svg>
