<svg width="91" height="92" viewBox="0 0 91 92" fill="none" xmlns="http://www.w3.org/2000/svg">
<path d="M73.0017 61.1636C77.5444 55.8417 80.4607 49.3257 81.403 42.3924C81.6064 40.8957 81.7159 39.3932 81.7329 37.8933M44.9411 1.00135C51.9379 0.941062 58.8044 2.89425 64.722 6.62803C67.1636 8.16864 69.4012 9.98558 71.3952 12.034M44.9411 1.00135C37.9444 1.06165 31.1125 3.13288 25.2602 6.96808C23.0225 8.43455 20.964 10.1353 19.1157 12.034M44.9411 1.00135V7.45217M17.9216 61.6382C13.2878 56.3954 10.2596 49.9306 9.19802 43.0146C8.93683 41.313 8.79739 39.6017 8.77803 37.8933M8.77803 37.8933C8.71869 32.6583 9.78689 27.4506 11.9341 22.6319C13.6931 18.6845 16.1303 15.1009 19.1157 12.034M8.77803 37.8933L15.0625 37.8933M81.7329 37.8933C81.7947 32.4453 80.6352 27.0322 78.316 22.0599C76.5788 18.3351 74.2338 14.95 71.3952 12.034M81.7329 37.8933H75.7794M71.3952 12.034L66.9283 16.5009M19.1157 12.034L23.5827 16.5009M90.0901 90.9999H82.8934M1 90.9999H26.9743M26.9743 90.9999L24.4801 67.982C24.2659 66.006 25.8139 64.2812 27.8015 64.2812M26.9743 90.9999H76.772M65.3566 79.2536L66.4772 67.9854C66.6745 66.0018 65.1165 64.2812 63.1232 64.2812M64.6121 84.7132L64.5294 85.1268M27.8015 64.2812H63.1232M27.8015 64.2812C28.0756 62.5644 29.0773 59.9267 31.193 57.7544M50.9632 54.0239C53.1971 54.0915 56.8956 54.9487 59.6489 57.4367M50.9632 54.0239L50.9632 48.4034M50.9632 54.0239C50.7978 55.5404 49.4908 58.5735 45.5864 58.5735C41.682 58.5735 40.1544 55.5452 39.8787 54.0311M63.1232 64.2812C62.7398 61.214 61.3815 59.0024 59.6489 57.4367M31.193 57.7544C30.4761 56.952 29.0423 54.8842 29.0423 53.0312C29.0423 50.715 31.193 49.5569 31.193 48.1507C31.193 47.3171 31.193 41.0421 31.193 35.6599M31.193 57.7544C33.0947 55.8017 35.8964 54.225 39.8787 54.0311M59.6489 57.4367C60.3658 56.5748 61.7996 54.4871 61.7996 53.0312C61.7996 51.5753 60.3658 49.1709 59.6489 48.1507V35.6599M59.6489 35.6599V30.6139C59.0423 26.2849 55.3805 17.6268 45.5864 17.6268C35.7923 17.6268 31.9099 26.2849 31.193 30.6139C31.193 32.0065 31.193 33.7787 31.193 35.6599M59.6489 35.6599C58.0654 35.6599 56.6025 35.4477 55.2647 35.0884M31.193 35.6599C32.738 35.6599 34.2398 35.3777 35.6599 34.9132M35.6599 34.9132C40.2617 33.408 44.0061 29.9881 45.5864 28.0496C46.7489 30.0675 50.0611 33.6908 55.2647 35.0884M35.6599 34.9132V40.4577C35.698 42.5906 36.6936 46.1967 39.8787 48.2236M55.2647 35.0884L55.2647 40.4577C55.2843 42.6552 54.3294 46.4166 50.9632 48.4034M50.9632 48.4034C49.5989 49.2086 47.8385 49.7224 45.5864 49.7224C43.1709 49.7224 41.3052 49.1314 39.8787 48.2236M39.8787 54.0311L39.8787 48.2236M76.772 90.9999C75.3107 89.1801 73.0165 84.283 75.5312 79.2536H79.8741M76.772 90.9999H82.8934M82.8934 90.9999C86.2022 85.9705 85.1544 81.0735 84.2169 79.2536H79.8741M79.8741 79.2536L79.8741 75.3658M79.8741 69.5753L79.8741 75.3658M79.8741 75.3658L83.307 72.5533M79.8741 75.3658L76.1103 72.5533M11.2161 79.2537L6.87324 79.2537C4.35853 84.2831 6.65266 89.1801 8.11406 91H14.2354C17.5442 85.9706 16.4964 81.0735 15.5589 79.2537L11.2161 79.2537ZM11.2161 79.2537L11.2161 75.3658M11.2161 75.3658L11.2161 69.5754M11.2161 75.3658L14.649 72.5533M11.2161 75.3658L7.45227 72.5533M41.1195 77.8474C40.954 76.2205 41.5827 72.9669 45.421 72.9669C49.2592 72.9669 49.9981 76.2205 49.8879 77.8474C49.8327 79.1985 48.8621 81.9007 45.421 81.9007C41.9798 81.9007 41.1195 79.1985 41.1195 77.8474Z" stroke="#242223" stroke-width="1.5" stroke-linecap="round" stroke-linejoin="round"/>
</svg>
