<svg width="200" height="110" viewBox="0 0 200 110" fill="none" xmlns="http://www.w3.org/2000/svg">
<path d="M32.6431 25.2996L45.4647 17.1768L55.5779 10.7698C57.2284 9.72421 59.3367 9.73575 60.9756 10.7994L106.073 40.0669C107.494 40.9889 108.351 42.5674 108.351 44.261V73.2726V100.111V100.111C108.351 102.811 106.162 105 103.462 105H52.1807H12C9.23858 105 7 102.761 7 100V44.2966C7 42.5835 7.87703 40.9896 9.32415 40.0729L19.8216 33.4225" stroke="#242223" stroke-width="1.5"/>
<path d="M100.827 100V50.4142C100.827 48.5723 99.9139 46.8501 98.3895 45.8163L57.8638 18.3334L16.9677 45.8163C15.4432 46.8501 14.5303 48.5723 14.5303 50.4142V100" stroke="#242223" stroke-width="1.5" stroke-linecap="round" stroke-linejoin="round"/>
<path d="M55.8498 9.7652C55.4439 9.84818 55.1822 10.2444 55.2652 10.6502C55.3482 11.0561 55.7444 11.3178 56.1502 11.2348L55.8498 9.7652ZM108.875 21.6992L108.47 22.3301L108.47 22.3301L108.875 21.6992ZM128.329 48.5C128.329 48.9142 128.665 49.25 129.079 49.25C129.493 49.25 129.829 48.9142 129.829 48.5H128.329ZM126.783 33.2114L126.377 33.8423L126.783 33.2114ZM80.9049 5.40765L80.7547 4.67285L80.9049 5.40765ZM56.1502 11.2348L81.0552 6.14245L80.7547 4.67285L55.8498 9.7652L56.1502 11.2348ZM108.47 22.3301L126.377 33.8423L127.189 32.5805L109.281 21.0683L108.47 22.3301ZM84.2048 6.73129L108.47 22.3301L109.281 21.0683L85.0159 5.46952L84.2048 6.73129ZM128.329 37.4173V48.5H129.829V37.4173H128.329ZM126.377 33.8423C127.594 34.6243 128.329 35.9711 128.329 37.4173H129.829C129.829 35.4607 128.834 33.6385 127.189 32.5805L126.377 33.8423ZM81.0552 6.14245C82.1416 5.92029 83.2719 6.13161 84.2048 6.73129L85.0159 5.46952C83.7538 4.65819 82.2246 4.37229 80.7547 4.67285L81.0552 6.14245Z" fill="#242223"/>
<path d="M57.3082 18.8889V58.889V87.639V97.2223M30.0859 37.5926V52.5001M30.0859 97.2223V67.4075M84.5304 37.5926V67.4075M84.5304 97.2223V82.3149" stroke="#242223" stroke-width="1.5" stroke-linecap="round"/>
<path d="M118.725 63.936L145.654 46.8758C147.057 45.987 148.849 45.9968 150.242 46.9009L176.475 63.9255C177.683 64.7092 178.411 66.051 178.411 67.4906V84.5472V101.273C178.411 102.541 177.383 103.57 176.115 103.57H144.156H121C118.653 103.57 116.75 101.667 116.75 99.3195V67.5261C116.75 66.07 117.495 64.7153 118.725 63.936Z" stroke="#242223" stroke-width="1.5"/>
<path d="M147.178 45.0789C146.775 45.1751 146.526 45.5797 146.623 45.9826C146.719 46.3855 147.123 46.6341 147.526 46.5379L147.178 45.0789ZM176.796 102.954C176.425 103.137 176.271 103.586 176.454 103.958C176.636 104.33 177.086 104.483 177.458 104.3L176.796 102.954ZM184.885 55.8758L184.479 56.5067L184.479 56.5067L184.885 55.8758ZM181.287 53.5632L181.693 52.9323L181.693 52.9323L181.287 53.5632ZM166.492 44.9435C166.84 45.1675 167.304 45.0666 167.528 44.7182C167.752 44.3698 167.651 43.9057 167.303 43.6818L166.492 44.9435ZM179.894 51.776C179.546 51.552 179.082 51.6529 178.858 52.0013C178.634 52.3497 178.734 52.8138 179.083 53.0378L179.894 51.776ZM189.283 97.6577L188.953 96.9845L189.283 97.6577ZM161.227 42.495L161.053 41.7655L161.227 42.495ZM147.526 46.5379L161.401 43.2244L161.053 41.7655L147.178 45.0789L147.526 46.5379ZM191.329 63.2309V93.1697H192.829V63.2309H191.329ZM188.953 96.9845L176.796 102.954L177.458 104.3L189.614 98.331L188.953 96.9845ZM184.479 56.5067L189.378 59.6559L190.189 58.3941L185.29 55.245L184.479 56.5067ZM180.882 54.1941L184.479 56.5067L185.29 55.245L181.693 52.9323L180.882 54.1941ZM164.687 43.7832L166.492 44.9435L167.303 43.6818L165.498 42.5214L164.687 43.7832ZM179.083 53.0378L180.882 54.1941L181.693 52.9323L179.894 51.776L179.083 53.0378ZM191.329 93.1697C191.329 94.7904 190.408 96.2701 188.953 96.9845L189.614 98.331C191.582 97.3644 192.829 95.3625 192.829 93.1697H191.329ZM192.829 63.2309C192.829 61.2744 191.835 59.4521 190.189 58.3941L189.378 59.6559C190.594 60.4379 191.329 61.7848 191.329 63.2309H192.829ZM161.401 43.2244C162.527 42.9557 163.713 43.1575 164.687 43.7832L165.498 42.5214C164.181 41.6748 162.576 41.4018 161.053 41.7655L161.401 43.2244Z" fill="#242223"/>
<path d="M14 62H101" stroke="#242223" stroke-width="1.5"/>
</svg>
