<svg width="200" height="110" viewBox="0 0 200 110" fill="none" xmlns="http://www.w3.org/2000/svg">
<path d="M138.19 26.875L142.603 29.4226C143.221 29.7799 143.603 30.4402 143.603 31.1547V78.8453C143.603 79.5598 143.221 80.2201 142.603 80.5774L101.301 104.423C100.682 104.78 99.9201 104.78 99.3013 104.423L58 80.5773C57.3812 80.2201 57 79.5598 57 78.8453V67.5M127.365 20.625L121.952 17.5L101.301 5.57735C100.682 5.22008 99.9201 5.22008 99.3013 5.57735L58 29.4226C57.3812 29.7799 57 30.4402 57 31.1547V36.25M57 55V48.75" stroke="#242223" stroke-width="1.5" stroke-linecap="round"/>
<path d="M57.3013 30L99.0336 52.9303C99.6731 53.2817 100.071 53.9534 100.071 54.6831V104.461" stroke="#242223" stroke-width="1.5"/>
<circle cx="100.863" cy="52.191" r="25.0927" fill="white" stroke="#242223" stroke-width="1.5"/>
<path d="M84.1657 63.4269C81.9349 60.179 80.6384 56.3 80.6384 52.1336C80.6384 49.8305 81.0346 47.6152 81.7657 45.5458C82.4875 43.5028 83.5358 41.602 84.8518 39.8992M93.031 33.4537C94.4409 32.812 95.9346 32.3099 97.4924 31.9662" stroke="#242223" stroke-width="1.5"/>
<path d="M93.8067 50.4785L101.184 36.9811C101.359 36.6603 101.696 36.4607 102.061 36.4607H105.513C106.338 36.4607 106.809 37.4033 106.312 38.0623L99.4476 47.1776C98.9513 47.8366 99.4215 48.7792 100.246 48.7792H106.875C107.671 48.7792 108.148 49.6631 107.711 50.3281L95.4181 69.045L103.893 53.4352C104.255 52.7689 103.772 51.9581 103.014 51.9581H94.6842C93.9248 51.9581 93.4425 51.1449 93.8067 50.4785Z" stroke="#242223" stroke-width="1.5"/>
</svg>
