<svg width="427" height="130" viewBox="0 0 427 130" fill="none" xmlns="http://www.w3.org/2000/svg">
<path d="M355.918 2H29.5207C23.9979 2 19.5207 6.47715 19.5207 12V18.28C19.5207 23.8029 23.9979 28.28 29.5207 28.28H49.9738C55.2726 28.28 59.5681 32.5755 59.5681 37.8743V37.8743C59.5681 43.1731 55.2726 47.4686 49.9738 47.4686H12C6.47718 47.4686 2.00002 51.9457 2.00002 57.4686V65C2.00002 70.5229 6.47717 75 12 75H425" stroke="white" stroke-width="3" stroke-linecap="round"/>
<line x1="200.5" y1="56.5" x2="408.5" y2="56.5" stroke="white" stroke-width="3" stroke-linecap="round"/>
<line x1="103.5" y1="30.5" x2="291.5" y2="30.5" stroke="white" stroke-width="3" stroke-linecap="round"/>
<line x1="163.5" y1="56.5" x2="178.5" y2="56.5" stroke="white" stroke-width="3" stroke-linecap="round"/>
<path d="M268.5 128H217C211.477 128 207 123.523 207 118V105C207 99.4772 211.477 95 217 95H268.5H299.25" stroke="white" stroke-width="3" stroke-linecap="round"/>
</svg>
