<svg width="196" height="70" viewBox="0 0 196 70" fill="none" xmlns="http://www.w3.org/2000/svg">
<g clip-path="url(#clip0_49_18)">
<path fill-rule="evenodd" clip-rule="evenodd" d="M195.253 36.0815V51.5169H190.927V44.5365L188.076 51.5169H184.143L180.997 44.4382V51.5169H176.671V36.0815H181.685L186.11 46.6994L190.435 36.0815H195.253Z" fill="#242223"/>
<path fill-rule="evenodd" clip-rule="evenodd" d="M186.011 30.5758C186.7 30.5758 187.289 30.3792 187.879 30.0843C188.469 29.7893 188.961 29.2978 189.354 28.6096C189.747 28.0197 189.944 27.2331 189.944 26.3483C189.944 25.4635 189.747 24.7753 189.354 24.0871C188.961 23.4972 188.469 23.0056 187.879 22.6124C187.289 22.3174 186.601 22.1208 186.011 22.1208C185.323 22.1208 184.733 22.3174 184.143 22.6124C183.553 22.9073 183.062 23.3989 182.669 24.0871C182.275 24.677 182.079 25.4635 182.079 26.3483C182.079 27.2331 182.275 27.9214 182.669 28.6096C183.062 29.1994 183.553 29.691 184.143 30.0843C184.733 30.4775 185.323 30.5758 186.011 30.5758ZM186.011 18.3848C187.584 18.3848 189.059 18.7781 190.337 19.4663C191.615 20.1545 192.598 21.1376 193.385 22.3174C194.073 23.4972 194.466 24.9719 194.466 26.4466C194.466 27.9214 194.073 29.2978 193.385 30.5758C192.697 31.7556 191.615 32.7388 190.337 33.427C189.059 34.1152 187.584 34.5084 186.011 34.5084C184.438 34.5084 183.062 34.1152 181.685 33.427C180.407 32.7388 179.326 31.7556 178.539 30.5758C177.753 29.3961 177.36 28.0197 177.36 26.4466C177.36 24.8736 177.753 23.4972 178.539 22.3174C179.326 21.0393 180.309 20.1545 181.685 19.4663C183.062 18.7781 184.438 18.3848 186.011 18.3848Z" fill="#242223"/>
<path fill-rule="evenodd" clip-rule="evenodd" d="M184.93 4.62079C184.733 5.99719 184.438 7.27528 184.045 8.45506C183.652 9.63483 183.16 11.0112 182.57 12.5843H188.961V4.62079H184.93ZM193.09 12.5843H194.86V16.3202H181.292H177.261V12.5843H178.539C179.129 11.1096 179.719 9.83146 180.112 8.65169C180.506 7.47191 180.801 6.29213 180.997 5.01404C181.194 3.73595 181.292 2.35955 181.292 0.884831H193.188L193.09 12.5843Z" fill="#242223"/>
<path fill-rule="evenodd" clip-rule="evenodd" d="M78.5534 19.9579L66.6573 30.0843V48.764L42.4719 69.9017H22.3174V31.8539H0V14.5506L20.6461 0H82.5843V11.3062L95.8568 0H116.994L127.022 20.2528L148.947 0H170.379V55.1545L156.222 70H155.337C130.463 70 105.492 70 80.618 70H78.6517V19.9579H78.5534ZM21.9242 4.0309L4.0309 16.6152V27.823H26.3483V65.8708H40.9972L62.6264 46.8961V28.2163L78.5534 14.7472V4.0309H21.9242ZM166.348 53.5815V4.0309H150.52L125.843 26.8399L114.537 4.0309H97.3315L82.5843 16.6152V65.9691C106.573 65.9691 130.464 65.9691 154.452 65.9691L166.348 53.5815Z" fill="#242223"/>
</g>
<defs>
<clipPath id="clip0_49_18">
<rect width="195.253" height="70" fill="white"/>
</clipPath>
</defs>
</svg>
