<svg width="981" height="455" viewBox="0 0 981 455" fill="none" xmlns="http://www.w3.org/2000/svg">
<path d="M2 284.5C66.9507 272.953 260.6 312.793 368.236 385.311C372.226 387.999 370.253 394 365.442 394H2" stroke="white" stroke-width="3" stroke-linecap="round"/>
<path d="M70 253.5H3L38 198L17.5 194.5L44 152L32 149L70.5 91L109 149L97 152L123.5 194.5L103 198L125.5 233.679L119 253.5H70ZM70 253.5V285" stroke="white" stroke-width="3" stroke-linecap="round"/>
<path d="M191.5 307.5V264.5M191.5 114V179M191.5 264.5H268.5L193.5 6L116 264.5H191.5ZM191.5 264.5V240M191.5 240L207 223.5M191.5 240V227.5M191.5 240L175.5 223.5M191.5 227.5L207 210.5M191.5 227.5V192.5M191.5 227.5L175.5 210.5M191.5 192.5L207 175M191.5 192.5V179M191.5 192.5L175.5 175M191.5 179L207 162M191.5 179L175.5 162" stroke="white" stroke-width="3" stroke-linecap="round"/>
<path d="M284 170L230 298H341.5L284 170ZM284 170V340" stroke="white" stroke-width="3" stroke-linecap="round"/>
<path d="M19 366.5C27.3333 358.5 49.6 347.3 72 366.5C80.3333 358.5 104.1 347.3 126.5 366.5C134.833 358.5 157.6 347.3 180 366.5C188.333 358.5 211.1 346.901 233.5 366.101" stroke="white" stroke-width="3" stroke-linecap="round"/>
<path d="M361.5 432.5C365.191 424.395 375.052 413.047 384.973 432.5C388.664 424.395 399.19 413.047 409.111 432.5C412.801 424.395 422.885 413.047 432.805 432.5C436.496 424.395 446.579 412.643 456.5 432.096" stroke="white" stroke-width="3" stroke-linecap="round"/>
<path d="M490.5 401.5C494.191 393.395 504.052 382.047 513.973 401.5C517.664 393.395 528.19 382.047 538.111 401.5C541.801 393.395 551.885 382.047 561.805 401.5C565.496 393.395 575.579 381.643 585.5 401.096" stroke="white" stroke-width="3" stroke-linecap="round"/>
<path d="M76.5 410.5H205M150 432.5H162M181.5 432.5H298.5M265 453.5H669.5C675.023 453.5 679.5 449.023 679.5 443.5V431.5C679.5 425.977 675.023 421.5 669.5 421.5H625C619.477 421.5 615 417.023 615 411.5V406C615 400.477 619.477 396 625 396H657.5C663.023 396 667.5 391.523 667.5 386V376C667.5 370.477 663.023 366 657.5 366H335.5" stroke="white" stroke-width="3" stroke-linecap="round"/>
<path d="M687 222.5C608.833 210.333 426.6 218.9 305 348.5" stroke="white" stroke-width="3" stroke-linecap="round"/>
<path d="M404 273V262.5M404 217V241M404 262.5L421 246.5M404 262.5L386.5 246.5M404 262.5V251.5M404 251.5L415 241M404 251.5L393.5 241M404 251.5V241M404 241L409 235M404 241L398.5 235" stroke="white" stroke-width="3" stroke-linecap="round"/>
<path d="M466.312 246.5V233.562M466.312 177.5V207.071M466.312 233.562L487.5 213.848M466.312 233.562L444.5 213.848M466.312 233.562V220.009M466.312 220.009L480.022 207.071M466.312 220.009L453.225 207.071M466.312 220.009V207.071M466.312 207.071L472.543 199.679M466.312 207.071L459.457 199.679" stroke="white" stroke-width="3" stroke-linecap="round"/>
<path d="M527.159 229V201.438M527.159 82V145M527.159 201.438L572 159.438M527.159 201.438L481 159.438M527.159 201.438V172.562M527.159 172.562L556.174 145M527.159 172.562L499.464 145M527.159 172.562V145M527.159 145L540.348 129.25M527.159 145L512.652 129.25" stroke="white" stroke-width="3" stroke-linecap="round"/>
<path d="M634.196 218.5V189.625M634.196 64.5V130.5M634.196 189.625L681.5 145.625M634.196 189.625L585.5 145.625M634.196 189.625V159.375M634.196 159.375L664.804 130.5M634.196 159.375L604.978 130.5M634.196 159.375V130.5M634.196 130.5L648.109 114M634.196 130.5L618.891 114" stroke="white" stroke-width="3" stroke-linecap="round"/>
<path d="M734 312C646 312.8 697.834 142.833 734.5 58.5C771.167 142.833 822 312.8 734 312ZM734 312V340M734 312V270M734 145.5V193.5M734 193.5L750 179M734 193.5V215M734 215L752.5 198M734 215V244.5M734 244.5L716 225M734 244.5V270M734 270L716 247.5" stroke="white" stroke-width="3" stroke-linecap="round"/>
<path d="M848.328 319.015C765.019 319.629 814.09 189.21 848.802 124.5C883.514 189.21 931.637 319.629 848.328 319.015ZM848.328 319.015V340.5M848.328 319.015V286.788M848.328 191.257V228.088M848.328 228.088L863.475 216.962M848.328 228.088V244.585M848.328 244.585L865.842 231.541M848.328 244.585V267.221M848.328 267.221L831.287 252.258M848.328 267.221V286.788M848.328 286.788L831.287 269.523" stroke="white" stroke-width="3" stroke-linecap="round"/>
<path d="M933.571 324.077C967.981 324.489 947.713 236.94 933.375 193.5C919.038 236.94 899.161 324.489 933.571 324.077ZM933.571 324.077V338.5M933.571 324.077V302.443M933.571 238.313V263.038M933.571 263.038L927.315 255.569M933.571 263.038V274.113M933.571 274.113L926.337 265.356M933.571 274.113V289.308M933.571 289.308L940.61 279.264M933.571 289.308V302.443M933.571 302.443L940.61 290.853" stroke="white" stroke-width="3" stroke-linecap="round"/>
<path d="M572.5 341.5H979.5" stroke="white" stroke-width="3" stroke-linecap="round"/>
</svg>
