<svg width="200" height="110" viewBox="0 0 200 110" fill="none" xmlns="http://www.w3.org/2000/svg">
<path d="M30 105C67 62.5 138.962 65.3774 169.623 105L30 105Z" stroke="#242223" stroke-width="1.5" stroke-linecap="round"/>
<path d="M60.6387 77.9166H41.3208L51.4122 61.8414L45.5015 60.8276L53.1422 48.5178L49.6823 47.6488L60.7828 30.8495L71.8834 47.6488L68.4235 48.5178L76.0642 60.8276L70.1535 61.8414L79.8517 77.1139L60.6387 77.9166ZM60.6387 77.9166V87.0404" stroke="#242223" stroke-width="1.5" stroke-linecap="round"/>
<path d="M97.5135 77.4804V67.1433M97.5135 30.9631V46.5891M97.5135 67.1433H116.102L97.9964 5L79.2869 67.1433H97.5135ZM97.5135 67.1433V61.2535M97.5135 61.2535L101.255 57.2869M97.5135 61.2535V58.2485M97.5135 61.2535L93.6509 57.2869M97.5135 58.2485L101.255 54.1617M97.5135 58.2485V49.8345M97.5135 58.2485L93.6509 54.1617M97.5135 49.8345L101.255 45.6275M97.5135 49.8345V46.5891M97.5135 49.8345L93.6509 45.6275M97.5135 46.5891L101.255 42.5023M97.5135 46.5891L93.6509 42.5023" stroke="#242223" stroke-width="1.5" stroke-linecap="round"/>
<path d="M134.933 38.074L119.383 74.9428H151.492L134.933 38.074ZM134.933 38.074V87.0404" stroke="#242223" stroke-width="1.5" stroke-linecap="round"/>
<path d="M65.9907 94.8568C68.392 92.4908 74.8084 89.1784 81.2631 94.8568C83.6644 92.4908 90.513 89.1784 96.9678 94.8568C99.3691 92.4908 105.929 89.1784 112.384 94.8568C114.786 92.4908 121.346 89.0605 127.801 94.7389" stroke="#242223" stroke-width="1.5" stroke-linecap="round"/>
</svg>
