<svg width="21" height="30" viewBox="0 0 21 30" fill="none" xmlns="http://www.w3.org/2000/svg">
<path d="M20.167 10.0909C20.167 11.3707 19.5825 13.2279 18.6469 15.3512C17.7202 17.4545 16.4806 19.7508 15.2352 21.8832C13.9908 24.0139 12.7457 25.9725 11.8112 27.3989C11.3442 28.1119 10.9551 28.6914 10.683 29.0923C10.6776 29.1002 10.6723 29.1081 10.667 29.1159C10.6617 29.1081 10.6564 29.1002 10.651 29.0923C10.3789 28.6914 9.98981 28.1119 9.52274 27.3989C8.58831 25.9725 7.34316 24.0139 6.09875 21.8832C4.85338 19.7508 3.61379 17.4545 2.68705 15.3512C1.75148 13.2279 1.16699 11.3707 1.16699 10.0909C1.16699 4.78972 5.42454 0.5 10.667 0.5C15.9094 0.5 20.167 4.78972 20.167 10.0909Z" stroke="white"/>
<circle cx="10.667" cy="10" r="5.5" stroke="white"/>
</svg>
