<svg width="84" height="82" viewBox="0 0 84 82" fill="none" xmlns="http://www.w3.org/2000/svg">
<path d="M15.4776 70.8814H19.5092M23.3037 60.5257H1.72266L4.0942 81H31.1298L33.5013 60.5257H32.1574M23.3037 60.5257L27.6704 46.5336M23.3037 60.5257H32.1574M58.4659 53.7273L56.1874 46.5336M27.6704 46.5336L56.5552 63.3715M27.6704 46.5336L51.0459 30.17M27.6704 46.5336L32.7773 30.17M55.1614 70.4071H79.5883M55.1614 70.4071H42.3551M55.1614 70.4071L56.5552 63.3715M61.8017 36.8893V30.3281H72.948V36.8893M61.8017 36.8893H72.948M61.8017 36.8893L56.5552 63.3715M72.948 36.8893L79.5883 70.4071M79.5883 70.4071H82.276M37.9282 70.4071H37.5329M51.0459 30.17L56.1874 46.5336M51.0459 30.17L46.0705 14.0435M51.0459 30.17L37.8101 14.0435M56.1874 46.5336L32.7773 30.17M56.1874 46.5336L32.1574 60.5257M32.7773 30.17L46.0705 14.0435M32.7773 30.17L37.8101 14.0435M46.0705 14.0435L41.8808 1L37.8101 14.0435M68.7582 47.2451L64.8057 53.332H69.7068L66.1495 59.1028M27.0982 18.0751V14.0435H56.6634V18.0751M56.6634 21.6324V22.1067M27.0982 21.6324V22.1067M12.5527 51.4348H13.1061M8.28392 48.4308C8.78458 47.7984 10.3867 46.5336 12.7898 46.5336C15.193 46.5336 16.9005 47.7984 17.4539 48.4308M5.04281 45.1107C6.07048 44.0303 9.05862 41.8696 12.7898 41.8696C16.5211 41.8696 19.72 44.0303 20.8531 45.1107M1.88076 41.6324C3.38274 40.1831 7.66732 37.2846 12.7898 37.2846C17.9124 37.2846 22.2497 40.1831 23.778 41.6324M72.7108 21.6324C71.8939 23.0553 69.3906 25.0316 67.1772 22.581C64.9638 20.1304 67.0191 17.3636 69.0744 17.2055C68.442 14.834 72.3155 9.02731 77.2958 13.253C81.5614 16.8723 77.2167 22.581 72.7108 21.6324Z" stroke="#242223" stroke-width="1.5" stroke-linecap="round" stroke-linejoin="round"/>
</svg>
