<svg width="26" height="26" viewBox="0 0 26 26" fill="none" xmlns="http://www.w3.org/2000/svg">
<path d="M23.583 22.8623L21.9259 24.5195C21.6298 24.814 20.7631 25.0001 20.7372 25.0001C15.4911 25.0444 10.4404 22.9845 6.72857 19.2719C3.00618 15.5502 0.943931 10.4796 1.00116 5.21826C1.00116 5.21518 1.19116 4.37291 1.48644 4.07993L3.14359 2.42126C3.75168 1.81395 4.91589 1.53928 5.7315 1.81088L6.08094 1.92836C6.89655 2.19996 7.74874 3.10024 7.97458 3.9288L8.80923 6.99129C9.03581 7.82141 8.7314 9.00242 8.1241 9.60972L7.01628 10.7175C8.10276 14.7444 11.2606 17.9016 15.2852 18.9895L16.393 17.8817C17.0003 17.2743 18.1844 16.9707 19.0145 17.1965L22.077 18.0328C22.9041 18.2571 23.8044 19.1085 24.0775 19.9248L24.1935 20.2743C24.465 21.0908 24.1904 22.255 23.583 22.8623Z" stroke="white"/>
<path d="M16.625 12.5002H15.0625C15.0625 11.6396 14.3614 10.9377 13.5 10.9377V9.37519C15.2258 9.37519 16.625 10.7744 16.625 12.5002Z" fill="white"/>
<path d="M13.5 4.68757C17.8152 4.68757 21.3126 8.18495 21.3126 12.5002H19.7501C19.7501 9.05476 16.947 6.25014 13.5 6.25014V4.68757Z" fill="white"/>
<path d="M13.5 1.56252V0C20.4032 0 26.0002 5.59704 26.0002 12.5002H24.4377C24.4377 6.46983 19.5304 1.56252 13.5 1.56252Z" fill="white"/>
</svg>
