<svg width="94" height="92" viewBox="0 0 94 92" fill="none" xmlns="http://www.w3.org/2000/svg">
<path d="M51.5115 68.9329C53.9124 67.1794 56.8706 66.3622 59.8311 66.6347C60.1725 66.6661 60.5112 66.7118 60.8464 66.7713M60.6493 90.8453C63.5846 90.3735 66.247 88.8469 68.1368 86.5517C70.0265 84.2565 71.0138 81.3507 70.9134 78.3793C70.8271 75.8261 69.9428 73.3753 68.4011 71.3642M60.6493 90.8453C57.7139 91.317 54.7072 90.7015 52.1935 89.114C49.6797 87.5266 47.8316 85.0764 46.9959 82.2232C46.1603 79.37 46.3945 76.31 47.6546 73.6172M60.6493 90.8453H35.9175M60.6493 90.8453H89.1902C89.1902 90.8453 93.2028 89.8047 93.2028 86.3044C93.2028 82.8042 90.5277 81.6429 89.1902 81.3528M45.264 18.7657C44.4242 17.1233 43.9676 15.3119 43.9284 13.4676C43.8893 11.6233 44.2685 9.79416 45.0378 8.11751C45.807 6.44087 46.9462 4.96033 48.3697 3.78714C49.7933 2.61395 51.4641 1.77861 53.2569 1.34387C55.0496 0.909135 56.9175 0.886305 58.7203 1.2771C60.5232 1.66789 62.214 2.46215 63.6658 3.6002C65.1176 4.73824 66.2926 6.19049 67.1025 7.84784C67.9125 9.50519 68.3364 11.3245 68.3423 13.1692M62.2794 20.8085C64.3113 18.7556 67.0052 17.4896 69.8825 17.2356C72.7597 16.9815 75.6338 17.7558 77.994 19.4209C80.3542 21.0859 82.0476 23.5339 82.7732 26.3297C83.4988 29.1255 83.2096 32.088 81.957 34.6907M58.8828 83.8286C59.7081 83.914 61.3586 83.5384 61.3586 81.3528C61.3586 79.1673 59.7081 78.7347 58.8828 78.7916C57.8299 78.6778 55.724 78.1769 55.724 76.4012C55.724 74.0107 57.1469 73.84 57.8584 73.7546H58.8828M58.8828 83.8286H56.2363M58.8828 83.8286V85.963M60.8464 73.7546H58.8828M58.8828 73.7546V71.3642M54.3581 30.0437H52.3945M52.3945 30.0437H51.37C50.6586 30.1291 49.2357 30.2998 49.2357 32.6903C49.2357 34.466 51.3416 34.9669 52.3945 35.0807C53.2198 35.0238 54.8703 35.4563 54.8703 37.6419C54.8703 38.6125 54.5448 39.2261 54.1106 39.6009M52.3945 30.0437V27.6533M53.6332 17.4523C54.3165 17.9229 55.9451 18.3844 56.9928 16.4663C58.0405 14.5483 56.7993 13.3774 56.0477 13.0318C55.1782 12.4271 53.5702 10.9781 54.4215 9.41966C55.5674 7.32178 56.898 7.85402 57.5632 8.12014L58.4623 8.61124M53.6332 17.4523L51.3105 16.1836M53.6332 17.4523L52.61 19.3254M60.1856 9.55253L58.4623 8.61124M58.4623 8.61124L59.6082 6.51336M69.0481 34.7214C69.7883 35.096 71.4642 35.3348 72.245 33.2935C73.0259 31.2522 71.6388 30.2585 70.8477 30.0168C69.9049 29.5343 68.117 28.3141 68.7514 26.6556C69.6055 24.4229 70.9955 24.7718 71.6905 24.9462L72.6473 25.3123M69.0481 34.7214L66.5762 33.7758M69.0481 34.7214L68.2855 36.7148M74.4813 26.0138L72.6473 25.3123M72.6473 25.3123L73.5014 23.0796M40.823 39.6009C39.8865 37.3109 39.6637 34.7785 40.2034 32.3411C40.846 29.4383 42.5258 26.8699 44.9276 25.1176C47.3294 23.3653 50.288 22.5497 53.2484 22.8237C56.2088 23.0978 58.9674 24.4427 61.0067 26.6061C63.046 28.7695 64.2258 31.6027 64.3246 34.5741C64.3823 36.3083 64.0695 38.0201 63.4231 39.6009M40.823 39.6009H35.9175M40.823 39.6009H54.1106M35.9175 39.6009L27.7217 51.7284H1L8.42744 39.6009H12.1839M35.9175 39.6009L43.2596 51.7284H83.5556M35.9175 39.6009V90.8453M35.9175 39.6009H12.1839M35.9175 90.8453H8.42744V58.3875M89.1902 81.3528C89.1902 81.3528 93.2028 80.1576 93.2028 76.4012C93.2028 72.3887 89.1902 71.3642 89.1902 71.3642M89.1902 81.3528H80.6529M89.1902 71.3642C90.5277 71.1934 93.2028 69.9982 93.2028 66.5833C93.2028 63.1684 90.5277 62.2008 89.1902 62.1439H65.0297C63.6353 62.3546 60.8464 63.5751 60.8464 66.7713M89.1902 71.3642H68.4011M60.8464 66.7713C63.4184 67.2279 65.7863 68.5 67.5914 70.413C67.8785 70.7173 68.1486 71.0349 68.4011 71.3642M75.7867 81.3528H75.2744M83.5556 51.7284H90.8977L83.4702 39.6009H63.4231M83.5556 51.7284V56.9362M19.5259 34.91C19.2983 32.0642 20.5162 26.3727 27.2095 26.3727C33.9027 26.3727 34.7792 32.0642 34.3808 34.91M12.1839 39.6009L6.84804 27.9498M39.1617 22.3602L35.4704 14.4205M35.4704 14.4205L30.1122 2.89513L18.7576 8.21654M35.4704 14.4205C32.1192 15.6346 24.0848 16.0935 18.7576 8.21654M18.7576 8.21654L12.8668 10.9773M12.8668 10.9773L1.51224 16.2987L6.84804 27.9498M12.8668 10.9773C13.9767 14.7416 14.3267 23.4062 6.84804 27.9498M54.1106 39.6009H63.4231" stroke="#242223" stroke-width="1.5" stroke-linecap="round" stroke-linejoin="round"/>
</svg>
