<svg width="977" height="462" viewBox="0 0 977 462" fill="none" xmlns="http://www.w3.org/2000/svg">
<path d="M965 248.311C866.683 239.202 637.732 274.414 561.827 384.552C559.614 387.762 561.991 392 565.89 392H965" stroke="#242223" stroke-width="3" stroke-linecap="round"/>
<path d="M62.149 277.896H5.67705C4.10367 277.896 3.14641 276.163 3.98403 274.831L31.8562 230.512C32.6146 229.306 31.9048 227.716 30.5006 227.476L17.9931 225.334C16.5932 225.095 15.8822 223.513 16.6321 222.307L37.3813 188.938C38.0972 187.787 37.4843 186.272 36.1692 185.942L30.8082 184.598C29.4698 184.262 28.8652 182.705 29.6268 181.554L60.9297 134.266C61.7206 133.071 63.4743 133.071 64.2652 134.266L95.5681 181.554C96.3297 182.705 95.725 184.262 94.3867 184.598L89.0257 185.942C87.7106 186.272 87.0977 187.787 87.8136 188.938L108.563 222.307C109.313 223.513 108.602 225.095 107.202 225.334L94.6942 227.476C93.2901 227.716 92.5803 229.306 93.3387 230.512L121.211 274.831C122.048 276.163 121.091 277.896 119.518 277.896H106.097H62.149ZM62.149 277.896L62.5974 300.594M62.149 277.896L62.5974 192.181" stroke="#242223" stroke-width="3" stroke-linecap="round"/>
<path d="M628.57 317.254C593.916 280.319 553.544 252.175 511.377 230.979" stroke="#242223" stroke-width="3" stroke-linecap="round"/>
<path d="M579.886 272.823V257.619M579.886 191.732V226.485M579.886 257.619L555.254 234.45M579.886 257.619L605.242 234.45M579.886 257.619V241.69M579.886 241.69L563.948 226.485M579.886 241.69L595.1 226.485M579.886 241.69V226.485M579.886 226.485L572.641 217.797M579.886 226.485L587.855 217.797" stroke="#242223" stroke-width="3" stroke-linecap="round"/>
<path d="M779.253 238.082C858.719 238.82 811.912 81.8733 778.801 4C745.69 81.8733 699.786 238.82 779.253 238.082ZM779.253 238.082V263.937M779.253 238.082V199.299M779.253 84.3357V128.659M779.253 128.659L764.804 115.27M779.253 128.659V148.512V175.752V199.299M779.253 199.299L795.507 178.522" stroke="#242223" stroke-width="3" stroke-linecap="round"/>
<path d="M712.994 330.587C723.179 320.765 750.393 307.013 777.77 330.587C787.955 320.765 817.002 307.013 844.379 330.587C854.564 320.765 882.389 307.013 909.766 330.587C919.951 320.765 947.776 306.524 975.152 330.098" stroke="#242223" stroke-width="3" stroke-linecap="round"/>
<path d="M903.359 222.401C833.952 223.049 874.834 85.5524 903.754 17.3301C932.674 85.5524 972.767 223.049 903.359 222.401ZM903.359 222.401V245.052M903.359 222.401V188.425M903.359 87.7096V126.54M903.359 126.54L915.979 114.81M903.359 126.54V143.932V167.797V188.425M903.359 188.425L889.162 170.224" stroke="#242223" stroke-width="3" stroke-linecap="round"/>
<path d="M674.015 275.931C625.731 276.509 654.171 153.768 674.289 92.8672C694.407 153.768 722.298 276.509 674.015 275.931ZM674.015 275.931V296.151M674.015 275.931V245.601M674.015 155.694V190.357V205.883M674.015 205.883L684.165 193.606M674.015 205.883V227.186V245.601M674.015 245.601L664.138 229.353" stroke="#242223" stroke-width="3" stroke-linecap="round"/>
<path d="M557.477 425.009C553.377 416.005 542.422 403.399 531.402 425.009C527.302 416.005 515.609 403.399 504.589 425.009C500.489 416.005 489.288 403.399 478.268 425.009C474.168 416.005 462.967 402.951 451.947 424.56" stroke="#242223" stroke-width="3" stroke-linecap="round"/>
<path d="M397.516 403.903C393.416 394.899 382.461 382.293 371.441 403.903C367.341 394.899 355.648 382.293 344.628 403.903C340.528 394.899 329.327 382.293 318.307 403.903C314.207 394.899 303.006 381.845 291.986 403.454" stroke="#242223" stroke-width="3" stroke-linecap="round"/>
<path d="M808.526 435.562H665.783M726.88 460H713.55M691.888 460H277.545M234.777 460H120.919C115.396 460 110.919 455.523 110.919 450V434.453C110.919 428.93 115.396 424.453 120.919 424.453H224.222C229.745 424.453 234.222 419.976 234.222 414.453V406.127C234.222 400.604 229.745 396.127 224.222 396.127H185.903C180.38 396.127 175.903 391.65 175.903 386.127V372.802C175.903 367.279 180.38 362.802 185.903 362.802L577.5 362.802" stroke="#242223" stroke-width="3" stroke-linecap="round"/>
<path d="M263.189 181.23H248.598M146.465 181.23V253.494C146.465 254.047 146.913 254.494 147.465 254.494H159.613C160.165 254.494 160.613 254.047 160.613 253.494V207.045C160.613 206.493 161.061 206.045 161.613 206.045H177.299C177.851 206.045 178.299 206.493 178.299 207.045V253.494C178.299 254.047 178.746 254.494 179.299 254.494H215.028C215.58 254.494 216.028 254.047 216.028 253.494V207.045C216.028 206.493 216.475 206.045 217.028 206.045H232.713C233.265 206.045 233.713 206.493 233.713 207.045V253.494C233.713 254.047 234.161 254.494 234.713 254.494H337.647C338.199 254.494 338.647 254.047 338.647 253.494V114.874C338.647 114.321 338.199 113.874 337.647 113.874H201.179C200.876 113.874 200.59 114.011 200.4 114.246L146.465 181.23ZM146.465 181.23H175.646H204.827M234.008 181.23H226.713M271.263 245.041H330.572C331.125 245.041 331.572 244.593 331.572 244.041V124.327C331.572 123.775 331.125 123.327 330.572 123.327H322.587C322.303 123.327 322.032 123.448 321.842 123.66L270.518 180.945C270.354 181.128 270.263 181.366 270.263 181.612V244.041C270.263 244.593 270.711 245.041 271.263 245.041Z" stroke="#242223" stroke-width="3" stroke-linecap="round" stroke-linejoin="round"/>
<path d="M217.947 112.702V52.7661C217.947 52.2138 218.395 51.7661 218.947 51.7661H403.098M403.098 51.7661V254.494M403.098 51.7661H427.253C427.541 51.7661 427.815 51.8903 428.005 52.107L510.659 146.402C510.819 146.585 510.907 146.819 510.907 147.061V253.494C510.907 254.047 510.459 254.494 509.907 254.494H403.098M403.098 254.494H385.52M337.475 254.494H350.365M350.365 254.494H385.52M350.365 254.494C350.365 250.964 350.365 202.14 350.365 158.404C350.365 144.508 350.365 131.362 350.365 120.733C350.365 120.18 350.813 119.733 351.365 119.733H384.52C385.072 119.733 385.52 120.181 385.52 120.733V158.404V182.426M385.52 254.494V230.472M412.473 81.0621V59.7972C412.473 59.2449 412.92 58.7972 413.473 58.7972H422.56C422.851 58.7972 423.128 58.9244 423.318 59.1456L501.291 149.92C501.447 150.101 501.532 150.332 501.532 150.571V247.635C501.532 248.188 501.085 248.635 500.532 248.635H475.752M412.473 81.0621L427.706 97.7066M412.473 81.0621V164.849M475.752 248.635H453.487M475.752 248.635V164.849M453.487 125.874L475.49 149.914C475.658 150.098 475.752 150.339 475.752 150.589V164.849M453.487 125.874V248.635M453.487 125.874L427.706 97.7066M453.487 248.635H427.706M427.706 97.7066V173.171V210.903V229.769V248.635M427.706 248.635H413.473C412.92 248.635 412.473 248.188 412.473 247.635V164.849M412.473 164.849H475.752M284.742 164.849V243.948M310.522 137.31V216.996M310.522 243.948V216.996M310.522 216.996H271.852M209.744 112.702V86.7495C209.744 86.1972 210.192 85.7495 210.744 85.7495H217.947" stroke="#242223" stroke-width="3" stroke-linecap="round" stroke-linejoin="round"/>
<path d="M160.527 249.807L176.933 249.807" stroke="#242223" stroke-width="3" stroke-linecap="round" stroke-linejoin="round"/>
<path d="M216.775 249.807H233.181" stroke="#242223" stroke-width="3" stroke-linecap="round" stroke-linejoin="round"/>
<path d="M234.353 68.1719H342.162M356.224 68.1719H394.895" stroke="#242223" stroke-width="3" stroke-linecap="round" stroke-linejoin="round"/>
<path d="M1.5 302.816C32.6035 300.409 159.239 290.597 232.555 361.691" stroke="#242223" stroke-width="3" stroke-linecap="round" stroke-linejoin="round"/>
</svg>
