<svg width="25" height="25" viewBox="0 0 25 25" fill="none" xmlns="http://www.w3.org/2000/svg">
<path d="M2 5.5H1.4885L1.50013 6.01137C1.58732 9.84421 2.67925 12.976 4.72812 15.1535C6.78241 17.3366 9.74206 18.5 13.4378 18.5H13.8445H14.3445V18V14.2844C16.4982 14.6812 18.1183 16.2129 18.8029 18.1654L18.9202 18.5H19.2747H23H23.672L23.4789 17.8564C22.5586 14.7877 20.3655 12.8972 18.6448 11.9372C20.2877 10.817 22.189 8.76991 22.7039 6.09449L22.8183 5.5H22.2129H18.8287H18.4598L18.3509 5.85246C18.0105 6.95463 17.3306 8.01827 16.4912 8.8278C15.8187 9.47647 15.0706 9.93707 14.3445 10.1417V6V5.5H13.8445H10.4603H9.96027V6V13.6293C8.22962 12.9194 6.19596 10.7461 6.09389 5.98927L6.08339 5.5H5.594H2Z" stroke="white"/>
</svg>
