<svg width="82" height="82" viewBox="0 0 82 82" fill="none" xmlns="http://www.w3.org/2000/svg">
<path d="M0.991992 80.25C0.577779 80.25 0.241992 80.5858 0.241992 81C0.241992 81.4142 0.577779 81.75 0.991992 81.75V80.25ZM6.28133 56.8425C6.02107 56.5202 5.54886 56.47 5.22662 56.7303C4.90439 56.9905 4.85415 57.4627 5.11442 57.785L6.28133 56.8425ZM12.7237 57.771C12.9763 57.4427 12.9148 56.9718 12.5865 56.7193C12.2582 56.4667 11.7873 56.5281 11.5348 56.8564L12.7237 57.771ZM80.6783 81.75C81.0925 81.75 81.4283 81.4142 81.4283 81C81.4283 80.5858 81.0925 80.25 80.6783 80.25V81.75ZM73.5851 57.7059C73.5851 57.2917 73.2493 56.9559 72.8351 56.9559C72.4209 56.9559 72.0851 57.2917 72.0851 57.7059H73.5851ZM77.2789 60.6354C77.6406 60.4337 77.7703 59.9769 77.5686 59.6151C77.3668 59.2533 76.91 59.1236 76.5483 59.3254L77.2789 60.6354ZM60.443 57.3137H61.193C61.193 56.8995 60.8572 56.5637 60.443 56.5637V57.3137ZM51.2665 57.3137V56.5637C50.8523 56.5637 50.5165 56.8995 50.5165 57.3137H51.2665ZM56.6047 67.9804C56.6047 67.5662 56.269 67.2304 55.8547 67.2304C55.4405 67.2304 55.1047 67.5662 55.1047 67.9804H56.6047ZM55.8547 30.4118H56.6047C56.6047 29.9976 56.269 29.6618 55.8547 29.6618V30.4118ZM26.09 30.4118V29.6618C25.6758 29.6618 25.34 29.9976 25.34 30.4118H26.09ZM30.4822 57.3137H31.2322C31.2322 56.8995 30.8964 56.5637 30.4822 56.5637V57.3137ZM26.84 68.0588C26.84 67.6446 26.5042 67.3088 26.09 67.3088C25.6758 67.3088 25.34 67.6446 25.34 68.0588H26.84ZM21.4626 57.3137V56.5637C21.0484 56.5637 20.7126 56.8995 20.7126 57.3137H21.4626ZM37.5851 46.098C37.5851 45.6838 37.2493 45.348 36.8351 45.348C36.4209 45.348 36.0851 45.6838 36.0851 46.098H37.5851ZM36.0851 41.4706C36.0851 41.8848 36.4209 42.2206 36.8351 42.2206C37.2493 42.2206 37.5851 41.8848 37.5851 41.4706H36.0851ZM37.5851 41.1569C37.5851 40.7426 37.2493 40.4069 36.8351 40.4069C36.4209 40.4069 36.0851 40.7426 36.0851 41.1569H37.5851ZM44.242 71.1961C44.242 71.6103 44.5778 71.9461 44.992 71.9461C45.4062 71.9461 45.742 71.6103 45.742 71.1961H44.242ZM45.742 75.9804C45.742 75.5662 45.4062 75.2304 44.992 75.2304C44.5778 75.2304 44.242 75.5662 44.242 75.9804H45.742ZM44.242 76.3726C44.242 76.7868 44.5778 77.1226 44.992 77.1226C45.4062 77.1226 45.742 76.7868 45.742 76.3726H44.242ZM53.0704 21.8627H53.8204C53.8204 21.4485 53.4846 21.1127 53.0704 21.1127V21.8627ZM44.3645 21.8627V21.1127C43.9503 21.1127 43.6145 21.4485 43.6145 21.8627H44.3645ZM37.3842 21.8627H38.1342C38.1342 21.4485 37.7984 21.1127 37.3842 21.1127V21.8627ZM28.6783 21.8627V21.1127C28.2641 21.1127 27.9283 21.4485 27.9283 21.8627H28.6783ZM32.0508 14.9608V14.2108C31.6366 14.2108 31.3008 14.5466 31.3008 14.9608H32.0508ZM35.1096 14.9608V15.7108C35.5239 15.7108 35.8596 15.375 35.8596 14.9608H35.1096ZM35.1096 9.54902V8.79902C34.6954 8.79902 34.3596 9.13481 34.3596 9.54902H35.1096ZM46.4822 9.54902H47.2322C47.2322 9.13481 46.8964 8.79902 46.4822 8.79902V9.54902ZM46.4822 14.9608H45.7322C45.7322 15.375 46.068 15.7108 46.4822 15.7108V14.9608ZM49.6979 14.9608H50.4479C50.4479 14.5466 50.1121 14.2108 49.6979 14.2108V14.9608ZM41.5459 1C41.5459 0.585786 41.2101 0.25 40.7959 0.25C40.3817 0.25 40.0459 0.585786 40.0459 1H41.5459ZM25.2273 9.59314C25.6415 9.59314 25.9773 9.25735 25.9773 8.84314C25.9773 8.42892 25.6415 8.09314 25.2273 8.09314V9.59314ZM24.1292 8.09314C23.715 8.09314 23.3792 8.42892 23.3792 8.84314C23.3792 9.25735 23.715 9.59314 24.1292 9.59314V8.09314ZM20.2077 9.59314C20.6219 9.59314 20.9577 9.25735 20.9577 8.84314C20.9577 8.42892 20.6219 8.09314 20.2077 8.09314V9.59314ZM16.992 8.84314L16.2453 8.77313C16.2256 8.9833 16.2953 9.19204 16.4375 9.34811C16.5796 9.50418 16.7809 9.59314 16.992 9.59314V8.84314ZM11.1096 4.60784L10.4937 5.03584C10.719 5.36 11.157 5.45406 11.4955 5.25096L11.1096 4.60784ZM3.58023 2.80392L3.19436 2.1608L3.58023 2.80392ZM0.586939 9.23359C0.802582 9.58725 1.26409 9.69913 1.61774 9.48348C1.9714 9.26784 2.08328 8.80634 1.86763 8.45268L0.586939 9.23359ZM81.0704 9.59314C81.4846 9.59314 81.8204 9.25735 81.8204 8.84314C81.8204 8.42892 81.4846 8.09314 81.0704 8.09314V9.59314ZM79.9724 8.09314C79.5582 8.09314 79.2224 8.42892 79.2224 8.84314C79.2224 9.25735 79.5582 9.59314 79.9724 9.59314V8.09314ZM76.0508 9.59314C76.465 9.59314 76.8008 9.25735 76.8008 8.84314C76.8008 8.42892 76.465 8.09314 76.0508 8.09314V9.59314ZM72.8351 8.84314L72.0884 8.77313C72.0687 8.9833 72.1385 9.19204 72.2806 9.34811C72.4227 9.50418 72.624 9.59314 72.8351 9.59314V8.84314ZM70.7959 5L70.4166 5.64702L70.7959 5ZM66.9528 4.60784L66.3369 5.03584C66.5622 5.36 67.0002 5.45406 67.3386 5.25096L66.9528 4.60784ZM59.4234 2.80392L59.0375 2.1608L59.4234 2.80392ZM56.4301 9.23359C56.6457 9.58725 57.1072 9.69913 57.4609 9.48348C57.8145 9.26784 57.9264 8.80634 57.7108 8.45268L56.4301 9.23359ZM16.242 57.6275C16.242 62.5797 12.8811 66.3677 8.99199 66.3677V67.8677C13.9394 67.8677 17.742 63.1578 17.742 57.6275H16.242ZM8.99199 66.3677C5.10288 66.3677 1.74199 62.5797 1.74199 57.6275H0.241992C0.241992 63.1578 4.04455 67.8677 8.99199 67.8677V66.3677ZM1.74199 57.6275C1.74199 52.6752 5.10288 48.8873 8.99199 48.8873V47.3873C4.04455 47.3873 0.241992 52.0971 0.241992 57.6275H1.74199ZM8.99199 48.8873C12.8811 48.8873 16.242 52.6752 16.242 57.6275H17.742C17.742 52.0971 13.9394 47.3873 8.99199 47.3873V48.8873ZM9.74199 67.1177V61.3922H8.24199V67.1177H9.74199ZM8.24199 67.1177V81H9.74199V67.1177H8.24199ZM8.99199 80.25H0.991992V81.75H8.99199V80.25ZM9.57545 60.9209L6.28133 56.8425L5.11442 57.785L8.40854 61.8634L9.57545 60.9209ZM9.58646 61.8494L12.7237 57.771L11.5348 56.8564L8.39752 60.9349L9.58646 61.8494ZM72.8351 81.75H80.6783V80.25H72.8351V81.75ZM73.5851 81V62.2549H72.0851V81H73.5851ZM73.5851 62.2549V57.7059H72.0851V62.2549H73.5851ZM73.2004 62.9099L77.2789 60.6354L76.5483 59.3254L72.4698 61.5999L73.2004 62.9099ZM60.443 81.75H72.8351V80.25H60.443V81.75ZM61.193 81V57.3137H59.693V81H61.193ZM50.5165 57.3137V81H52.0165V57.3137H50.5165ZM51.2665 81.75H55.8547V80.25H51.2665V81.75ZM55.8547 81.75H60.443V80.25H55.8547V81.75ZM56.6047 81V67.9804H55.1047V81H56.6047ZM60.443 56.5637H55.8547V58.0637H60.443V56.5637ZM55.8547 56.5637H51.2665V58.0637H55.8547V56.5637ZM26.09 58.0637H30.4822V56.5637H26.09V58.0637ZM29.7322 57.3137V81H31.2322V57.3137H29.7322ZM26.09 81.75H30.4822V80.25H26.09V81.75ZM26.84 81V68.0588H25.34V81H26.84ZM8.99199 81.75H21.4626V80.25H8.99199V81.75ZM21.4626 81.75H26.09V80.25H21.4626V81.75ZM22.2126 81V57.3137H20.7126V81H22.2126ZM21.4626 58.0637H26.09V56.5637H21.4626V58.0637ZM30.4822 81.75H36.8351V80.25H30.4822V81.75ZM36.8351 81.75H51.2665V80.25H36.8351V81.75ZM37.5851 81V46.098H36.0851V81H37.5851ZM37.5851 41.4706V41.1569H36.0851V41.4706H37.5851ZM25.34 30.4118V36.6863H26.84V30.4118H25.34ZM25.34 36.6863V57.3137H26.84V36.6863H25.34ZM56.6047 57.3137V36.6863H55.1047V57.3137H56.6047ZM56.6047 36.6863V30.4118H55.1047V36.6863H56.6047ZM26.09 37.4363H44.992V35.9363H26.09V37.4363ZM44.992 37.4363H55.8547V35.9363H44.992V37.4363ZM44.242 36.6863V71.1961H45.742V36.6863H44.242ZM44.242 75.9804V76.3726H45.742V75.9804H44.242ZM55.8547 29.6618H53.0704V31.1618H55.8547V29.6618ZM53.8204 30.4118V21.8627H52.3204V30.4118H53.8204ZM53.0704 29.6618H44.3645V31.1618H53.0704V29.6618ZM43.6145 21.8627V30.4118H45.1145V21.8627H43.6145ZM44.3645 29.6618H37.3842V31.1618H44.3645V29.6618ZM38.1342 30.4118V21.8627H36.6342V30.4118H38.1342ZM37.3842 29.6618H28.6783V31.1618H37.3842V29.6618ZM28.6783 29.6618H26.09V31.1618H28.6783V29.6618ZM27.9283 21.8627V30.4118H29.4283V21.8627H27.9283ZM37.3842 21.1127H32.0508V22.6127H37.3842V21.1127ZM32.0508 21.1127H28.6783V22.6127H32.0508V21.1127ZM32.8008 21.8627V14.9608H31.3008V21.8627H32.8008ZM32.0508 15.7108H35.1096V14.2108H32.0508V15.7108ZM35.8596 14.9608V9.54902H34.3596V14.9608H35.8596ZM45.7322 9.54902V14.9608H47.2322V9.54902H45.7322ZM46.4822 15.7108H49.6979V14.2108H46.4822V15.7108ZM53.0704 21.1127H49.6979V22.6127H53.0704V21.1127ZM49.6979 21.1127H44.3645V22.6127H49.6979V21.1127ZM48.9479 14.9608V21.8627H50.4479V14.9608H48.9479ZM35.1096 10.299H40.7959V8.79902H35.1096V10.299ZM40.7959 10.299H46.4822V8.79902H40.7959V10.299ZM41.5459 9.54902V1H40.0459V9.54902H41.5459ZM25.2273 8.09314H24.1292V9.59314H25.2273V8.09314ZM20.2077 8.09314H16.992V9.59314H20.2077V8.09314ZM17.7387 8.91314C17.8338 7.89932 17.488 5.61679 15.3321 4.35298L14.5735 5.64702C16.0568 6.51654 16.3071 8.11375 16.2453 8.77313L17.7387 8.91314ZM15.3321 4.35298C13.287 3.15413 11.4926 3.5034 10.7238 3.96472L11.4955 5.25096C11.7724 5.08484 12.9794 4.71253 14.5735 5.64702L15.3321 4.35298ZM11.7255 4.17985C11.1256 3.31654 10.0194 2.22502 8.54821 1.6355C7.04021 1.03124 5.17817 0.970514 3.19436 2.1608L3.9661 3.44704C5.51902 2.51529 6.88574 2.58528 7.99028 3.02787C9.1316 3.4852 10.0218 4.35667 10.4937 5.03584L11.7255 4.17985ZM3.19436 2.1608C1.63032 3.09922 0.776146 4.51554 0.406899 5.83744C0.222632 6.49712 0.155388 7.14491 0.184114 7.71656C0.212076 8.27301 0.33443 8.81948 0.586939 9.23359L1.86763 8.45268C1.79335 8.33085 1.70328 8.06032 1.68222 7.64128C1.66193 7.23745 1.70907 6.75125 1.8516 6.24099C2.13595 5.22302 2.78504 4.15568 3.9661 3.44704L3.19436 2.1608ZM81.0704 8.09314H79.9724V9.59314H81.0704V8.09314ZM76.0508 8.09314H72.8351V9.59314H76.0508V8.09314ZM73.5819 8.91314C73.6769 7.89932 73.3311 5.61679 71.1752 4.35298L70.4166 5.64702C71.8999 6.51654 72.1502 8.11375 72.0884 8.77313L73.5819 8.91314ZM71.1752 4.35298C69.1301 3.15413 67.3358 3.5034 66.5669 3.96472L67.3386 5.25096C67.6155 5.08484 68.8225 4.71253 70.4166 5.64702L71.1752 4.35298ZM67.5687 4.17985C66.9687 3.31654 65.8626 2.22502 64.3913 1.6355C62.8833 1.03124 61.0213 0.970514 59.0375 2.1608L59.8092 3.44704C61.3622 2.51529 62.7289 2.58528 63.8334 3.02787C64.9747 3.4852 65.8649 4.35667 66.3369 5.03584L67.5687 4.17985ZM59.0375 2.1608C57.4735 3.09922 56.6193 4.51554 56.25 5.83744C56.0658 6.49712 55.9985 7.14491 56.0273 7.71656C56.0552 8.27301 56.1776 8.81948 56.4301 9.23359L57.7108 8.45268C57.6365 8.33085 57.5464 8.06032 57.5254 7.64128C57.5051 7.23745 57.5522 6.75125 57.6947 6.24099C57.9791 5.22302 58.6282 4.15568 59.8092 3.44704L59.0375 2.1608ZM80.0851 57.6275C80.0851 62.5797 76.7243 66.3677 72.8351 66.3677V67.8677C77.7826 67.8677 81.5851 63.1578 81.5851 57.6275H80.0851ZM72.8351 66.3677C68.946 66.3677 65.5851 62.5797 65.5851 57.6275H64.0851C64.0851 63.1578 67.8877 67.8677 72.8351 67.8677V66.3677ZM65.5851 57.6275C65.5851 52.6752 68.946 48.8873 72.8351 48.8873V47.3873C67.8877 47.3873 64.0851 52.0971 64.0851 57.6275H65.5851ZM72.8351 48.8873C76.7243 48.8873 80.0851 52.6752 80.0851 57.6275H81.5851C81.5851 52.0971 77.7826 47.3873 72.8351 47.3873V48.8873Z" fill="#242223"/>
</svg>
