<svg width="200" height="110" viewBox="0 0 200 110" fill="none" xmlns="http://www.w3.org/2000/svg">
<path d="M24.7255 40.7064L70.9792 11.4034C72.3822 10.5146 74.1743 10.5244 75.5674 11.4285L120.665 40.696C121.873 41.4797 122.601 42.8214 122.601 44.261V73.2726V100.111C122.601 102.397 120.748 104.25 118.462 104.25H67.1807H27C24.6528 104.25 22.75 102.347 22.75 100V44.2966C22.75 42.8405 23.4955 41.4857 24.7255 40.7064Z" stroke="#242223" stroke-width="1.5"/>
<path d="M115.827 100V50.4142C115.827 48.5723 114.914 46.8501 113.389 45.8163L72.8638 18.3334L31.9677 45.8163C30.4432 46.8501 29.5303 48.5723 29.5303 50.4142V100" stroke="#242223" stroke-width="1.5" stroke-linecap="round" stroke-linejoin="round"/>
<path d="M72.8382 9.76765C72.4338 9.857 72.1783 10.2573 72.2677 10.6618C72.357 11.0662 72.7573 11.3217 73.1618 11.2323L72.8382 9.76765ZM119.755 103.216C119.384 103.398 119.23 103.848 119.413 104.22C119.595 104.591 120.045 104.745 120.417 104.562L119.755 103.216ZM109.849 11.791C109.501 11.567 109.037 11.6679 108.813 12.0163C108.589 12.3647 108.69 12.8288 109.038 13.0528L109.849 11.791ZM132.534 27.2656L132.94 26.6347L132.94 26.6347L132.534 27.2656ZM115.216 16.1328L115.622 15.5019L115.622 15.5019L115.216 16.1328ZM126.761 23.5547L126.356 24.1856L126.356 24.1856L126.761 23.5547ZM103.266 9.34182C103.614 9.56581 104.078 9.46493 104.302 9.11651C104.526 8.76808 104.425 8.30404 104.077 8.08005L103.266 9.34182ZM117.697 18.6192C118.045 18.8432 118.509 18.7423 118.733 18.3939C118.957 18.0454 118.857 17.5814 118.508 17.3574L117.697 18.6192ZM124.281 21.0683C123.932 20.8443 123.468 20.9452 123.244 21.2937C123.02 21.6421 123.121 22.1061 123.47 22.3301L124.281 21.0683ZM141.283 93.48L140.952 92.8068L141.283 93.48ZM141.783 33.2114L141.377 33.8423L141.783 33.2114ZM73.1618 11.2323L96.0285 6.18118L95.7049 4.71649L72.8382 9.76765L73.1618 11.2323ZM143.329 37.4173V88.992H144.829V37.4173H143.329ZM140.952 92.8068L119.755 103.216L120.417 104.562L141.614 94.1532L140.952 92.8068ZM132.128 27.8965L141.377 33.8423L142.189 32.5805L132.94 26.6347L132.128 27.8965ZM109.038 13.0528L114.811 16.7637L115.622 15.5019L109.849 11.791L109.038 13.0528ZM126.356 24.1856L132.128 27.8965L132.94 26.6347L127.167 22.9238L126.356 24.1856ZM99.2434 6.75613L103.266 9.34182L104.077 8.08005L100.055 5.49436L99.2434 6.75613ZM114.811 16.7637L117.697 18.6192L118.508 17.3574L115.622 15.5019L114.811 16.7637ZM123.47 22.3301L126.356 24.1856L127.167 22.9238L124.281 21.0683L123.47 22.3301ZM143.329 88.992C143.329 90.6127 142.407 92.0924 140.952 92.8068L141.614 94.1532C143.582 93.1867 144.829 91.1848 144.829 88.992H143.329ZM144.829 37.4173C144.829 35.4607 143.834 33.6385 142.189 32.5805L141.377 33.8423C142.594 34.6243 143.329 35.9711 143.329 37.4173H144.829ZM96.0285 6.18118C97.1339 5.93699 98.2911 6.14394 99.2434 6.75613L100.055 5.49436C98.7661 4.66611 97.2005 4.38612 95.7049 4.71649L96.0285 6.18118Z" fill="#242223"/>
<path d="M72.3082 18.8889V58.889V68.4723M72.3082 97.2223V87.639M45.0859 37.5926V97.2223M99.5304 37.5926V97.2223" stroke="#242223" stroke-width="1.5" stroke-linecap="round"/>
<path d="M142.385 30.5556C133.581 50.8609 121.135 91.7844 142.265 91.5918C163.394 91.7844 151.189 50.8609 142.385 30.5556Z" fill="white"/>
<path d="M142.265 91.5918C121.135 91.7844 133.581 50.8609 142.385 30.5556C151.189 50.8609 163.394 91.7844 142.265 91.5918ZM142.265 91.5918V98.3335M142.265 91.5918V81.4793M142.265 51.5029V63.0601M142.265 63.0601L146.106 59.5689M142.265 63.0601V68.2367V75.3395V81.4793M142.265 81.4793L137.943 76.0619" stroke="#242223" stroke-width="1.5" stroke-linecap="round"/>
<path d="M161.303 9.44446C149.145 37.7387 131.959 94.7633 161.137 94.4949C190.316 94.7633 173.461 37.7387 161.303 9.44446Z" fill="white"/>
<path d="M161.137 94.4949C131.959 94.7633 149.145 37.7387 161.303 9.44446C173.461 37.7387 190.316 94.7633 161.137 94.4949ZM161.137 94.4949V103.889M161.137 94.4949V80.4037M161.137 38.6334V54.7376M161.137 54.7376L166.442 49.8728M161.137 54.7376V61.9509V71.8483V80.4037M161.137 80.4037L155.169 72.8548" stroke="#242223" stroke-width="1.5" stroke-linecap="round"/>
<path d="M28.7773 62H115.777" stroke="#242223" stroke-width="1.5"/>
</svg>
