<svg width="981" height="461" viewBox="0 0 981 461" fill="none" xmlns="http://www.w3.org/2000/svg">
<path d="M71.916 88H358.55C364.073 88 368.55 83.5228 368.55 78V70.36V67.48C368.55 61.9571 364.073 57.48 358.55 57.48H344.24C339.137 57.48 335 53.3431 335 48.24V48.24C335 43.1369 330.863 39 325.76 39H197.5H150.875M11 39H131.814" stroke="#242223" stroke-width="3" stroke-linecap="round"/>
<path d="M221.063 65.5H200.45M56.1592 65.5H138.611H159.224" stroke="#242223" stroke-width="3" stroke-linecap="round"/>
<line x1="335.582" y1="73.5" x2="270.551" y2="73.5" stroke="#242223" stroke-width="3" stroke-linecap="round"/>
<path d="M3 280.5C70.5 268.5 274.5 308 379 386" stroke="#242223" stroke-width="3" stroke-linecap="round"/>
<path d="M795.5 316.5H862.5L827.5 261L848 257.5L821.5 215L833.5 212L795 154L756.5 212L768.5 215L742 257.5L762.5 261L740 296.679L746.5 316.5H795.5ZM795.5 316.5V348" stroke="#242223" stroke-width="3" stroke-linecap="round"/>
<path d="M674 349.5V327.5M674 177V242M674 327.5H597L672 69L749.5 327.5H674ZM674 327.5V303M674 303L658.5 286.5M674 303V290.5M674 303L690 286.5M674 290.5L658.5 273.5M674 290.5V255.5M674 290.5L690 273.5M674 255.5L658.5 238M674 255.5V242M674 255.5L690 238M674 242L658.5 225M674 242L690 225" stroke="#242223" stroke-width="3" stroke-linecap="round"/>
<path d="M57.0262 277V262.176M57.0262 160.77V204.567M57.0262 262.176H3L55.623 88L110 262.176H57.0262ZM57.0262 262.176V245.668M57.0262 245.668L46.1508 234.551M57.0262 245.668V237.246M57.0262 245.668L68.2525 234.551M57.0262 237.246L46.1508 225.791M57.0262 237.246V213.663M57.0262 237.246L68.2525 225.791M57.0262 213.663L46.1508 201.872M57.0262 213.663V204.567M57.0262 213.663L68.2525 201.872M57.0262 204.567L46.1508 193.112M57.0262 204.567L68.2525 193.112" stroke="#242223" stroke-width="3" stroke-linecap="round"/>
<path d="M895.04 134L850 295.882H943L895.04 134ZM895.04 134V349" stroke="#242223" stroke-width="3" stroke-linecap="round"/>
<path d="M396 336C402.876 329.368 421.25 320.084 439.734 336C446.611 329.368 466.222 320.084 484.706 336C491.583 329.368 510.369 320.084 528.853 336C535.73 329.368 554.516 319.753 573 335.67" stroke="#242223" stroke-width="3" stroke-linecap="round"/>
<path d="M16 402C25.9456 392.421 52.5203 379.01 79.2541 402C89.1997 392.421 117.565 379.01 144.298 402C154.244 392.421 181.415 379.01 208.149 402C218.095 392.421 245.266 378.533 272 401.523" stroke="#242223" stroke-width="3" stroke-linecap="round"/>
<path d="M306 344.5C402.237 241.932 536.451 215.173 627 214.503" stroke="#242223" stroke-width="3" stroke-linecap="round"/>
<path d="M260.5 449.5C505.5 317 982 352.533 979.5 352.533" stroke="#242223" stroke-width="3" stroke-linecap="round"/>
<path d="M256.826 322V308.313M256.826 249V280.286M256.826 308.313L279 287.455M256.826 308.313L234 287.455M256.826 308.313V293.973M256.826 293.973L271.174 280.286M256.826 293.973L243.13 280.286M256.826 293.973V280.286M256.826 280.286L263.348 272.464M256.826 280.286L249.652 272.464" stroke="#242223" stroke-width="3" stroke-linecap="round"/>
<path d="M153.551 293V270.313M153.551 172V223.857M153.551 270.313L191 235.741M153.551 270.313L115 235.741M153.551 270.313V246.545M153.551 246.545L177.783 223.857M153.551 246.545L130.42 223.857M153.551 246.545V223.857M153.551 223.857L164.565 210.893M153.551 223.857L141.435 210.893" stroke="#242223" stroke-width="3" stroke-linecap="round"/>
<path d="M470.401 223.384C422.407 223.83 450.677 129.035 470.674 82C490.671 129.035 518.394 223.83 470.401 223.384ZM470.401 223.384V239M470.401 223.384V199.959M470.401 130.522V157.293M470.401 157.293L479.127 149.206M470.401 157.293V169.284V185.737V199.959M470.401 199.959L460.584 187.41" stroke="#242223" stroke-width="3" stroke-linecap="round"/>
<path d="M571.12 196.814C629.074 197.419 594.938 68.8117 570.79 5C546.642 68.8117 513.165 197.419 571.12 196.814ZM571.12 196.814V218M571.12 196.814V165.034M571.12 70.8295V107.149M571.12 107.149L560.583 96.1776M571.12 107.149V123.417M571.12 123.417L558.936 110.554M571.12 123.417V145.739M571.12 145.739L582.974 130.984M571.12 145.739V165.034M571.12 165.034L582.974 150.5" stroke="#242223" stroke-width="3" stroke-linecap="round"/>
<path d="M384.071 264.577C418.481 264.989 398.213 177.44 383.875 134C369.538 177.44 349.661 264.989 384.071 264.577ZM384.071 264.577V279M384.071 264.577V242.943M384.071 178.813V203.538V214.613M384.071 214.613L376.837 205.856M384.071 214.613V229.808V242.943M384.071 242.943L391.11 231.353" stroke="#242223" stroke-width="3" stroke-linecap="round"/>
<path d="M497 419H759.209M646.98 459H671.466M711.257 459H950" stroke="#242223" stroke-width="3" stroke-linecap="round"/>
</svg>
