<svg width="92" height="92" viewBox="0 0 92 92" fill="none" xmlns="http://www.w3.org/2000/svg">
<path d="M60.5028 35.6409V39.1215C60.5028 40.0369 61.2448 40.779 62.1602 40.779H78.5691C79.4844 40.779 80.2265 40.0369 80.2265 39.1215V35.6409M60.5028 35.6409V32.8232C60.5028 32.2097 60.8361 31.6741 61.3315 31.3875M60.5028 35.6409H52.8785C51.0477 35.6409 49.5635 37.125 49.5635 38.9558V54.6188M80.2265 35.6409H87.5193C89.3501 35.6409 90.8343 37.125 90.8343 38.9558V87.6851C90.8343 89.5159 89.3501 91 87.5193 91H52.8785C51.0477 91 49.5635 89.5159 49.5635 87.6851V84.7845M80.2265 35.6409V32.8232C80.2265 31.9078 79.4844 31.1657 78.5691 31.1657H76.8287M60.5028 55.779L61.8287 57.105L64.3978 54.2873M60.5028 76.663L61.8287 77.9889L64.3978 75.1713M74.5912 49.895H83.9558M74.5912 55.8619H83.9558M74.5912 61.8287H83.9558M74.5912 70.6133H83.9558M74.5912 76.5801H83.9558M74.5912 82.547H83.9558M76.8287 31.1657H62.1602C61.8583 31.1657 61.5753 31.2465 61.3315 31.3875M76.8287 31.1657V18.8177M76.8287 18.8177H87.1878M76.8287 18.8177L82.0497 10.8619L87.1878 18.8177M87.1878 18.8177V29.9227M61.3315 31.3875V8.62431H33.181M33.181 8.62431C29.9957 4.01788 24.6763 1 18.6519 1C8.90304 1 1 8.90304 1 18.6519C1 27.7852 7.93646 35.2984 16.8287 36.2109M33.181 8.62431C34.6737 10.783 35.6978 13.2906 36.106 16M38.7901 12.0221H39.0387M36.106 16C36.2363 16.865 36.3039 17.7506 36.3039 18.6519C36.3039 24.6037 33.3582 29.8675 28.8453 33.065M36.106 16H54.8674V29.9227M28.8453 33.065V40.4475M28.8453 33.065C27.0933 34.3063 25.1051 35.2362 22.9613 35.7741M28.8453 44.5912V46.4972M22.9613 35.7741C21.5821 36.1201 20.1385 36.3039 18.6519 36.3039C18.0363 36.3039 17.4281 36.2724 16.8287 36.2109M22.9613 35.7741V51.4696M22.9613 51.4696L39.0387 60.5856M22.9613 51.4696L16.8287 47.9016M13.8453 46.1657L7.71271 53.8729L13.8453 57.7166M13.8453 46.1657L16.8287 44.5912M13.8453 46.1657L16.8287 47.9016M39.0387 60.5856L31.2486 68.6243L18.9006 60.885M39.0387 60.5856L46.4144 68.6243L49.5635 66.8011M39.0387 60.5856L49.5635 54.6188M49.5635 66.8011V54.6188M49.5635 66.8011V84.7845M13.8453 57.7166V76.5801L39.0387 90.7514M13.8453 57.7166L18.9006 60.885M39.0387 90.7514V68.6243M39.0387 90.7514L49.5635 84.7845M18.9006 73.0166V70.779M18.9006 66.7182V60.885M16.8287 44.5912V36.2109M16.8287 44.5912V47.9016M11.2762 8.62431V26.5249M11.2762 8.62431L13.3481 11.5249M11.2762 8.62431L9.12155 11.5249M11.2762 26.5249H27.9337M11.2762 26.5249L17.2431 18.3204L20.1436 21.1381L25.6133 15.7514M27.9337 26.5249L25.116 23.9558M27.9337 26.5249L25.116 28.5138M56.5249 49.895H68.4586V61.663H56.5249V49.895ZM56.5249 70.779H68.4586V82.547H56.5249V70.779Z" stroke="#242223" stroke-width="1.5" stroke-linecap="round" stroke-linejoin="round"/>
</svg>
