<svg width="84" height="82" viewBox="0 0 84 82" fill="none" xmlns="http://www.w3.org/2000/svg">
<path d="M25.8001 13.96H28.5201M2.60008 13.96H5.32008M15.5601 3.72V1M15.5601 26.92V24.2M22.8009 6.71922L24.7242 4.79589M6.39598 23.1241L8.31931 21.2008M8.31932 6.71922L6.39599 4.79589M24.7242 23.1241L22.8009 21.2008M17.4801 48.52V45.32M17.4801 45.32V42.12M17.4801 45.32L20.2514 46.92M17.4801 45.32L14.7088 43.72M17.4801 45.32L20.2514 43.72M17.4801 45.32L14.7088 46.92M49.8514 18.28V15.08M49.8514 15.08V11.88M49.8514 15.08L52.6226 16.68M49.8514 15.08L47.0801 13.48M49.8514 15.08L52.6226 13.48M49.8514 15.08L47.0801 16.68M78.8114 42.12V38.92M78.8114 38.92V35.72M78.8114 38.92L81.5826 40.52M78.8114 38.92L76.0401 37.32M78.8114 38.92L81.5826 37.32M78.8114 38.92L76.0401 40.52M80.8401 11.08L82.9201 6.6L72.6001 1.88L70.5099 6.12M80.8401 11.08L80.1201 12.36L77.6408 14.5369C77.1558 14.9627 76.4625 15.0555 75.8827 14.7722L70.7659 12.2719M80.8401 11.08L70.5099 6.12M70.5099 6.12L69.8001 7.56V10.801C69.8001 11.4123 70.1484 11.9702 70.6976 12.2386L70.7659 12.2719M55.8801 37.24L58.5643 38.5136M58.5643 38.5136L63.8441 41.0186M58.5643 38.5136L55.9575 44.12M58.5643 38.5136L70.7659 12.2719M63.8441 41.0186L66.8401 42.44M63.8441 41.0186L72.5201 22.36M63.8441 41.0186L61.286 46.52M65.4801 56.04L68.3601 49.88L61.286 46.52M61.286 46.52L59.2401 50.92L54.9201 53.08L53.8001 48.76L55.9575 44.12M55.9575 44.12L49.0001 40.76L45.1601 48.36C45.1601 48.36 44.4026 49.7992 43.9933 52.5301M73.9781 19.16L74.1201 18.8484M1.08008 81H3.00008M3.00008 81C1.82674 78.36 1.01608 72.024 7.16008 67.8M3.00008 81H45.4801M13.0001 65.88C13.3734 64.7867 14.6321 62.36 16.6801 61.4C18.7281 60.44 21.6934 60.52 22.9201 60.68C24.0134 58.68 27.3841 55.048 32.1201 56.52C33.2955 56.8853 34.2407 57.3705 35.0001 57.9273M45.4801 81C47.0001 78.9467 48.9201 73.624 44.4401 68.76C44.2861 68.5928 44.1314 68.4329 43.9762 68.28M45.4801 81H70.4401M29.8001 69.16L29.5601 69.32M46.1201 62.28L45.9601 62.52M35.0001 57.9273C38.0655 60.1748 38.1042 63.5894 38.0401 65M35.0001 57.9273C36.6641 56.3651 38.5201 56.4982 39.2401 56.76C39.8138 55.5063 41.4441 53.2841 43.9933 52.5301M52.4401 56.76C51.9067 55.3467 49.8961 52.472 46.1201 52.28C45.3529 52.241 44.6432 52.3378 43.9933 52.5301M52.4401 56.76C51.3467 56.7333 48.8081 57.16 47.4001 59.08M52.4401 56.76C53.9067 56.68 57.1601 57.448 58.4401 61.16M58.4401 61.16C59.7201 64.872 57.4864 67.4533 56.2331 68.28M58.4401 61.16C59.5334 60.52 62.1669 60.0054 64.9201 61.16C67.4001 62.2 69.0267 65.0533 69.4801 66.04M56.2331 68.28C55.4901 67.786 54.6522 67.3424 53.7201 67C49.8001 65.56 45.7041 67.16 43.9762 68.28M56.2331 68.28C58.4959 69.7845 59.8783 71.7562 60.3601 72.76M32.9201 66.44C34.8256 65.2297 39.6154 63.9847 43.9762 68.28M56.6001 76.2C57.9067 74.12 62.0779 70.3837 66.7601 73.32C71.4801 76.28 70.6801 79.56 70.4401 81M70.4401 81H82.8401M69.4801 66.04C68.6801 66.68 66.9841 68.216 66.6001 69.24M69.4801 66.04C71.8001 66.04 76.9681 67.304 79.0801 72.36M80.0401 77.32V77.64M20.8401 13.8C20.8401 16.7161 18.4761 19.08 15.5601 19.08C12.644 19.08 10.2801 16.7161 10.2801 13.8C10.2801 10.8839 12.644 8.52 15.5601 8.52C18.4761 8.52 20.8401 10.8839 20.8401 13.8Z" stroke="#242223" stroke-width="1.5" stroke-linecap="round" stroke-linejoin="round"/>
</svg>
