<svg width="200" height="110" viewBox="0 0 200 110" fill="none" xmlns="http://www.w3.org/2000/svg">
<path d="M122.616 5H56.7008C56.1486 5 55.7008 5.44772 55.7008 6V60.7803M122.616 5V105M122.616 5H134.349C134.636 5 134.91 5.12365 135.1 5.3394L175.751 51.5375C175.911 51.7201 176 51.955 176 52.1981V104C176 104.552 175.552 105 175 105H122.616M122.616 105H113.912H75.0127M55.7008 38.526H112.912C113.464 38.526 113.912 38.9737 113.912 39.526V91.8037C113.912 92.356 113.464 92.8037 112.912 92.8037H79.2451C78.6928 92.8037 78.2451 92.356 78.2451 91.8037V61.7803C78.2451 61.2281 77.7974 60.7803 77.2451 60.7803H55.7008M127.258 19.4509V9.46821C127.258 8.91592 127.705 8.46821 128.258 8.46821H132.022C132.313 8.46821 132.589 8.59488 132.779 8.81518L171.115 53.2735C171.272 53.455 171.358 53.6868 171.358 53.9265V101.11C171.358 101.662 170.91 102.11 170.358 102.11H158.592M127.258 19.4509L134.801 27.6611M127.258 19.4509V60.7803M158.592 102.11H147.567M158.592 102.11V60.7803M147.567 41.5553L158.328 53.268C158.498 53.4525 158.592 53.694 158.592 53.9446V60.7803M147.567 41.5553V102.11M147.567 41.5553L134.801 27.6611M147.567 102.11H134.801M134.801 27.6611V64.8855V83.4977V92.8037V102.11M134.801 102.11H128.258C127.705 102.11 127.258 101.662 127.258 101.11V60.7803M127.258 60.7803H158.592M55.7008 105H43.5787C43.0264 105 42.5787 104.552 42.5787 104V86.4031C42.5787 85.8509 42.131 85.4031 41.5787 85.4031H31.9335C31.3812 85.4031 30.9335 85.8509 30.9335 86.4031V105M55.7008 105V85.6833C55.7008 85.5001 55.7512 85.3203 55.8464 85.1638L67.5405 65.933C67.7219 65.6347 68.0458 65.4526 68.3949 65.4526H74.0127C74.5649 65.4526 75.0127 65.9003 75.0127 66.4526V105M55.7008 105H75.0127M25 105V83.8394C25 83.6178 25.0736 83.4026 25.2091 83.2274L42.2785 61.1684C42.4678 60.9236 42.7599 60.7803 43.0693 60.7803H55.7008" stroke="#242223" stroke-width="1.5" stroke-linecap="round" stroke-linejoin="round"/>
<path d="M64.8616 12.8923L100.774 12.8923M105.459 12.8923L118.34 12.8923" stroke="#242223" stroke-width="1.5" stroke-linecap="round" stroke-linejoin="round"/>
</svg>
