<svg width="200" height="110" viewBox="0 0 200 110" fill="none" xmlns="http://www.w3.org/2000/svg">
<path d="M121.771 8.14818C121.362 8.21317 121.083 8.59748 121.148 9.00656C121.213 9.41565 121.598 9.69459 122.007 9.6296L121.771 8.14818ZM146.368 5L146.774 4.36912L146.533 4.2144L146.25 4.25929L146.368 5ZM192.549 92.1069L192.952 92.7391L193.299 92.518V92.1069H192.549ZM171.941 104.368C171.592 104.591 171.489 105.054 171.712 105.403C171.935 105.753 172.399 105.855 172.748 105.632L171.941 104.368ZM181.409 26.6347C181.061 26.4107 180.596 26.5116 180.372 26.86C180.149 27.2085 180.249 27.6725 180.598 27.8965L181.409 26.6347ZM174.825 24.1856C175.174 24.4095 175.638 24.3087 175.862 23.9602C176.086 23.6118 175.985 23.1478 175.636 22.9238L174.825 24.1856ZM166.166 18.6192C166.515 18.8431 166.979 18.7423 167.203 18.3938C167.427 18.0454 167.326 17.5814 166.978 17.3574L166.166 18.6192ZM172.75 21.0683C172.402 20.8443 171.938 20.9452 171.714 21.2936C171.49 21.6421 171.591 22.1061 171.939 22.3301L172.75 21.0683ZM190.252 33.2113L190.658 32.5805L190.252 33.2113ZM122.007 9.6296L146.486 5.74071L146.25 4.25929L121.771 8.14818L122.007 9.6296ZM191.799 37.4172V92.1069H193.299V37.4172H191.799ZM192.145 91.4747L171.941 104.368L172.748 105.632L192.952 92.7391L192.145 91.4747ZM180.598 27.8965L189.847 33.8422L190.658 32.5805L181.409 26.6347L180.598 27.8965ZM145.962 5.63088L166.166 18.6192L166.978 17.3574L146.774 4.36912L145.962 5.63088ZM171.939 22.3301L174.825 24.1856L175.636 22.9238L172.75 21.0683L171.939 22.3301ZM193.299 37.4172C193.299 35.4607 192.304 33.6385 190.658 32.5805L189.847 33.8422C191.063 34.6242 191.799 35.9711 191.799 37.4172H193.299Z" fill="#242223"/>
<path d="M72.2359 95.2778H39.4235C36.7388 95.2778 34.5624 97.4542 34.5624 100.139C34.5624 102.824 36.7388 105 39.4235 105H72.2359L171.821 105V44.261C171.821 42.5674 170.963 40.9889 169.543 40.0669L121.756 9.05408L107.791 17.5001H71.6281C68.9434 17.5001 66.767 19.6765 66.767 22.3612C66.767 25.0459 68.9434 27.2223 71.6281 27.2223L100.187 27.2219C102.872 27.2219 105.048 29.3983 105.048 32.0831C105.048 34.7678 102.872 36.9442 100.187 36.9442L44.2846 36.9446C41.5999 36.9446 39.4235 39.121 39.4235 41.8057C39.4235 44.4904 41.5999 46.6668 44.2846 46.6668L109.909 46.6665C112.594 46.6665 114.771 48.8429 114.771 51.5276C114.771 54.2123 112.594 56.3887 109.909 56.3887L36.3853 56.3888C33.7006 56.3888 31.5242 58.5652 31.5242 61.25C31.5242 63.9347 33.7006 66.1111 36.3853 66.1111L100.187 66.111C102.872 66.111 105.048 68.2874 105.048 70.9721C105.048 73.6569 102.872 75.8333 100.187 75.8332L45.4999 75.8334C42.8152 75.8334 40.6388 78.0098 40.6388 80.6945C40.6388 83.3792 42.8152 85.5556 45.4999 85.5556L86.8192 85.5554C89.5039 85.5554 91.6803 87.7318 91.6803 90.4165C91.6803 93.1013 89.5039 95.2776 86.8192 95.2776L72.2359 95.2778Z" stroke="#242223" stroke-width="1.5"/>
<circle cx="55.0486" cy="22.3611" r="4.11111" stroke="#242223" stroke-width="1.5"/>
<circle cx="23.1043" cy="61.2499" r="4.11111" stroke="#242223" stroke-width="1.5"/>
<circle cx="29.0069" cy="80.6945" r="4.11111" stroke="#242223" stroke-width="1.5"/>
<circle cx="12.8611" cy="80.6945" r="4.11111" stroke="#242223" stroke-width="1.5"/>
<path d="M124.111 17.7777L163.512 43.52C164.926 44.4433 165.778 46.0176 165.778 47.7058V99.4444" stroke="#242223" stroke-width="1.5" stroke-linecap="round" stroke-linejoin="round"/>
<path d="M151.333 36.4249V97.2222M135.778 26.1111V61.1238V70.1484M135.778 97.2222V88.1976" stroke="#242223" stroke-width="1.5" stroke-linecap="round"/>
<path d="M165.222 59.4444H143.833M122.444 59.4444H127.792" stroke="#242223" stroke-width="1.5" stroke-linecap="round"/>
</svg>
