<svg width="82" height="82" viewBox="0 0 82 82" fill="none" xmlns="http://www.w3.org/2000/svg">
<path d="M11 62.2501H1.07812V81H80.9215V62.2501H66.4685M11 62.2501L7.3281 67.0157L12.0156 70.6094L9.51559 73.1094M11 62.2501H15.2187M69.5153 76L69.2028 76.2344M21.4687 62.2501L17.7968 67.0157L22.4843 70.6094M31.7811 62.2501L28.1093 67.0157L32.7967 70.6094L29.0468 74.4375M42.2498 62.2501L38.578 67.0157L43.2654 70.6094M52.7185 62.2501L49.0467 67.0157L53.7341 70.6094L49.906 74.5938M63.1872 62.2501L59.5154 67.0157L64.2029 70.6094M73.6559 62.2501L69.9841 67.0157L74.6716 70.6094L72.1716 73.1094M6.85935 76L6.54685 76.2344M15.2187 62.2501V56.9376M15.2187 62.2501H66.4685M15.2187 56.9376C12.4062 57.4324 6.78123 56.8439 6.78123 50.5314C13.8437 48.9689 15.3489 54.1512 15.2187 56.9376ZM15.2187 56.9376C15.2187 54.073 16.9531 48.7814 23.8905 50.5314C23.8905 56.9689 18.1093 57.4845 15.2187 56.9376ZM15.2187 47.7189C15.5 45.5156 14.7686 41.3293 10.0625 40.5146M10.0625 40.5146C9.53991 40.4241 8.96812 40.3586 8.34372 40.3752C3.10937 40.5142 1.72916 45.271 2.32812 47.7189C4.93228 48.3847 10.125 47.876 10.0625 40.5146ZM40.9998 57.8748V38.4217M40.9998 27.2499C38.1613 24.9322 34.1874 19.1718 40.9998 14.6718C47.5623 19.1718 43.7342 24.9322 40.9998 27.2499ZM40.9998 27.2499V38.4217M40.9998 38.4217C37.5884 39.2811 30.7186 38.9373 30.5311 30.6874C38.9061 28.8749 40.9998 35.0884 40.9998 38.4217ZM40.9998 38.4217C41.0259 34.9321 43.1404 28.4999 51.3904 30.6874C50.7654 38.6873 44.2029 39.1769 40.9998 38.4217ZM40.9998 54.0466C37.5884 54.906 30.7186 54.5623 30.5311 46.3123C38.9061 44.4998 40.9998 50.7133 40.9998 54.0466ZM40.9998 54.0466C41.0259 50.5571 43.1404 44.1248 51.3904 46.3123C50.7654 54.3123 44.2029 54.8018 40.9998 54.0466ZM66.4685 56.9376C63.656 57.4324 58.031 56.8439 58.031 50.5314C64.8208 49.0292 66.4741 53.761 66.476 56.6046M66.4685 56.9376C66.4735 56.83 66.4761 56.7189 66.476 56.6046M66.4685 56.9376C66.4685 56.8299 66.4709 56.7187 66.476 56.6046M66.4685 56.9376C69.3591 57.4845 75.1403 56.9689 75.1403 50.5314C68.4637 48.8472 66.6063 53.685 66.476 56.6046M66.4685 56.9376V62.2501M66.7553 47.7189C66.474 45.5156 67.2054 41.3293 71.9115 40.5146M71.9115 40.5146C72.4341 40.4241 73.0058 40.3586 73.6302 40.3752C78.8646 40.5142 80.2448 45.271 79.6458 47.7189C77.0417 48.3847 71.849 47.876 71.9115 40.5146ZM75.3535 12.6406H77.7965M54.5154 12.6406H56.9585M66.156 3.44308V1M66.156 24.2812V21.8381M72.6596 6.13696L74.3871 4.40944M57.9248 20.8717L59.6524 19.1442M59.6524 6.13696L57.9249 4.40944M74.3871 20.8717L72.6596 19.1442M70.8984 12.4969C70.8984 15.1161 68.7752 17.2393 66.156 17.2393C63.5368 17.2393 61.4135 15.1161 61.4135 12.4969C61.4135 9.87768 63.5368 7.75441 66.156 7.75441C68.7752 7.75441 70.8984 9.87768 70.8984 12.4969ZM10.0625 15.2187C8.03122 14.8801 4.12499 13.0781 4.12499 7.9531C4.12499 1.54687 13.1874 -1.73436 17.5624 4.82811C19.5416 4.90623 23.4999 6.0781 23.4999 10.1406C23.4999 14.2031 20.427 15.2187 18.8905 15.2187H10.0625Z" stroke="#242223" stroke-width="1.5" stroke-linecap="round" stroke-linejoin="round"/>
</svg>
