<svg width="82" height="82" viewBox="0 0 82 82" fill="none" xmlns="http://www.w3.org/2000/svg">
<path d="M51.528 16.8121C51.528 14.4776 53.4205 12.4286 55.755 12.4286H56.0681C58.4026 12.4286 60.2951 14.3211 60.2951 16.6556V16.9687M51.528 16.8121C48.6056 16.8121 42.1407 16.5959 39.708 16.8121C32.5847 17.4453 24.209 23.6223 22.0955 30.7456C21.6936 32.1001 19.9298 37.2688 19.0427 39.6693M51.528 16.8121V27.3014M59.5123 70.3095C61.8468 70.3095 63.7393 68.0114 63.7393 65.1767V64.7965C63.7393 61.9617 61.8468 59.6637 59.5123 59.6637M5.5006 59.6637C3.16609 59.6637 1.27359 61.9617 1.27359 64.7965L1.27359 65.1767C1.27359 68.0114 3.16609 70.3095 5.5006 70.3095M6.36165 54.1171H11.9977M6.43993 75.487H11.8411M53.0936 64.7965H58.573M73.4458 40.9217C73.3936 41.7828 73.5867 43.6145 74.7765 44.0528M16.6161 44.0528L16.9292 43.7397M51.528 27.3014V27.771C51.528 30.1055 53.4205 31.998 55.755 31.998H56.0681C58.4026 31.998 60.2951 30.1055 60.2951 27.771V16.9687M51.528 27.3014H41.2736C32.3499 27.771 32.0368 36.8513 29.2971 42.8004C28.605 44.3032 26.8705 47.5232 26.166 48.9843M26.166 48.9843H5.5006C3.16609 48.9843 1.27359 51.2824 1.27359 54.1171L1.27359 54.4973C1.27359 57.3321 3.16609 59.6301 5.5006 59.6301H59.5123C61.8468 59.6301 63.7393 57.3321 63.7393 54.4973V54.1171C63.7393 51.2824 61.8468 48.9843 59.5123 48.9843L26.166 48.9843ZM60.2951 16.9687L74.1503 18.6125V25.7358L65.4615 26.91M71.8802 8.12329H61.7041M71.8802 1H68.7491M63.1914 1H42.7609M11.1366 31.8415C11.1366 33.3114 9.94503 34.5029 8.47516 34.5029C7.00528 34.5029 5.81371 33.3114 5.81371 31.8415C5.81371 30.3716 7.00528 29.18 8.47516 29.18C9.94503 29.18 11.1366 30.3716 11.1366 31.8415ZM63.7393 75.8672V75.487C63.7393 72.6522 61.8468 70.3542 59.5123 70.3542H5.5006C3.16609 70.3542 1.27359 72.6522 1.27359 75.487L1.27359 75.8672C1.27359 78.702 3.16609 81 5.5006 81L59.5123 81C61.8468 81 63.7393 78.702 63.7393 75.8672ZM80.8039 42.1742C80.8039 45.2004 78.3507 47.6536 75.3245 47.6536C72.2983 47.6536 69.845 45.2004 69.845 42.1742C69.845 41.0776 70.1671 40.0563 70.7219 39.1996L75.1931 32.3557C75.2549 32.261 75.3937 32.2612 75.4554 32.3561L79.6485 38.8082C80.3726 39.737 80.8039 40.9052 80.8039 42.1742ZM79.708 63.6334C79.708 66.0482 77.7454 68.0059 75.3245 68.0059C72.9035 68.0059 70.9409 66.0482 70.9409 63.6334C70.9409 62.7583 71.1986 61.9433 71.6424 61.2597L75.1932 55.8385C75.2551 55.7439 75.3936 55.7441 75.4553 55.8388L78.7837 60.9474C79.363 61.6886 79.708 62.6208 79.708 63.6334ZM11.1366 16.4207H5.81371C4.27424 16.2642 1.19531 14.9648 1.19531 11.0196C1.19531 7.07436 4.27424 5.93151 5.81371 5.85323C6.02245 4.26158 7.37927 1.07828 11.1366 1.07828C14.8939 1.07828 16.5117 4.26158 16.8509 5.85323C18.4425 6.11416 21.6258 7.51272 21.6258 11.0196C21.6258 14.5264 18.4425 16.0815 16.8509 16.4207H11.1366Z" stroke="#242223" stroke-width="1.5" stroke-linecap="round" stroke-linejoin="round"/>
</svg>
