<svg width="200" height="110" viewBox="0 0 200 110" fill="none" xmlns="http://www.w3.org/2000/svg">
<path d="M158 80.2476V70.667C158 69.8711 157.528 69.151 156.798 68.8333L129.578 56.9802L115.367 50.7921L101.955 44.9517C101.446 44.73 100.867 44.73 100.358 44.9517L45.5143 68.8333C44.7846 69.151 44.3127 69.8711 44.3127 70.667V78.9371C44.3127 79.7329 44.7846 80.453 45.5143 80.7708L51.4182 83.3416L54.9709 84.8886M129.578 92.6238L122.473 95.7178M108.262 101.906L101.955 104.652C101.446 104.874 100.867 104.874 100.358 104.652L72.7346 92.6238L65.6291 89.5297L62.0764 87.9827" stroke="#242223" stroke-width="1.5" stroke-linecap="round"/>
<path d="M45.3647 69.8514L101.157 93.6138V104.505" stroke="#242223" stroke-width="1.5" stroke-linecap="round"/>
<path d="M99.3446 25.8373L44.501 49.7189C44.0449 49.9175 43.75 50.3676 43.75 50.865V59.1351C43.75 59.6325 44.0449 60.0825 44.501 60.2811L99.3446 84.1627C99.6628 84.3013 100.024 84.3013 100.343 84.1627L155.186 60.2811C155.642 60.0825 155.937 59.6325 155.937 59.1351V50.865C155.937 50.3676 155.642 49.9175 155.186 49.7189L100.343 25.8373C100.024 25.6987 99.6628 25.6987 99.3446 25.8373Z" fill="white" stroke="#242223" stroke-width="1.5" stroke-linecap="round"/>
<path d="M155.635 50.0494L141.687 55.99L131.226 60.4455L125.996 62.6732M99.8435 83.7128V73.8118L105.074 71.5841M120.765 64.9009L115.535 67.1286" stroke="#242223" stroke-width="1.5" stroke-linecap="round"/>
<path d="M100.343 6.03533L155.186 29.9169C155.642 30.1155 155.937 30.5656 155.937 31.063V39.3331C155.937 39.8305 155.642 40.2805 155.186 40.4791L100.343 64.3607C100.024 64.4993 99.6628 64.4993 99.3446 64.3607L44.501 40.4791C44.0449 40.2805 43.75 39.8305 43.75 39.3331V31.063C43.75 30.5656 44.0449 30.1155 44.501 29.9169L99.3446 6.03533C99.6628 5.89674 100.024 5.89674 100.343 6.03533Z" fill="white" stroke="#242223" stroke-width="1.5" stroke-linecap="round"/>
<path d="M44.052 30.2476L57.9999 36.1882M99.8438 64.406V54.0099L71.9479 42.1287" stroke="#242223" stroke-width="1.5" stroke-linecap="round"/>
</svg>
