<svg width="93" height="92" viewBox="0 0 93 92" fill="none" xmlns="http://www.w3.org/2000/svg">
<path d="M16.6243 8.14727H12.7182V12.4689M16.6243 8.14727V1H39.562V8.14727M16.6243 8.14727H39.562M39.562 8.14727H43.6343V12.4689M12.7182 12.4689V16.7905H43.6343V12.4689M12.7182 12.4689V12.4689C6.24642 12.4689 1 17.7153 1 24.1871V76.3788C1 81.4736 5.13016 85.6038 10.225 85.6038V85.6038M10.225 85.6038V82.4457M10.225 85.6038V90.7565L15.627 86.3518L21.029 90.7565V85.6038M21.029 76.3788V85.6038M21.029 85.6038H28.0932M33.8276 85.6038H34.16M16.4581 56.1836H8.97835M8.97835 48.3715H20.5303M20.5303 40.7255H30.1709M20.5303 32.9134H48.2053M48.2053 25.1844H20.5303M43.6343 12.4689V12.4689C50.0143 12.4689 55.1863 17.6409 55.1863 24.0209V35.3235M55.1032 41.4735V41.806M43.5512 44.7596L44.9015 43.4093L40.2666 38.7743L22.5249 56.516L27.1598 61.151L43.5512 44.7596ZM43.5512 44.7596C45.2688 46.0466 48.9034 48.6707 49.7012 48.8701C50.499 49.0696 52.5823 49.6181 53.5242 49.8674M53.5242 49.8674C54.0505 49.4519 55.5021 48.5377 57.0978 48.2053C58.6935 47.8728 60.1451 47.6235 60.6714 47.5404L67.462 42.637M53.5242 49.8674L44.2992 58.5937C43.8005 58.9539 42.9528 59.8902 43.5512 60.7545C44.2992 61.8349 47.208 64.162 49.3688 63.414C51.0974 62.8156 53.4133 60.9485 54.3552 60.0897C55.7127 60.1451 58.8763 60.0897 60.6714 59.4248C62.0882 58.9001 63.253 58.2718 63.9126 57.8669M67.462 42.637L66.4015 41.5765L71.0364 36.9416L91.3622 57.2674L86.7273 61.9023L67.462 42.637ZM67.462 54.7708L64.3282 57.5964C64.2289 57.6665 64.0888 57.7587 63.9126 57.8669M63.9126 57.8669L76.1984 69.8964M71.7248 75.6308C72.7498 76.1295 75.2052 76.7323 76.7112 75.0491C78.1241 73.47 77.57 71.4755 76.8775 70.5613L76.1984 69.8964M71.7248 75.6308L66.7383 70.5613M71.7248 75.6308L73.47 77.7085C73.941 78.6504 74.0518 80.6173 72.639 81.7808C71.0538 83.0863 68.8437 82.1964 68.068 81.7808L67.4793 81.1991M61.087 74.8829L67.4793 81.1991M67.4793 81.1991C67.5924 82.3072 67.7356 84.4059 66.489 85.4376C64.0789 87.4322 61.5856 85.4376 61.5856 85.4376L59.648 83.5261M55.4356 79.3707L59.648 83.5261M59.648 83.5261C59.9891 84.6896 60.0066 87.0166 58.8431 88.0139C57.0978 89.5099 55.4633 88.6234 54.6877 88.4295M54.6877 88.4295C54.937 87.3768 55.5136 85.3493 54.1059 83.9416C53.0421 82.8778 51.1694 82.8889 50.3661 83.0274M54.6877 88.4295L52.1113 90.7565C51.2248 91.0335 49.1859 91.305 48.1221 90.1747C47.0584 89.0444 46.9586 87.1036 47.0417 86.2745M81.4484 65.6579C80.6633 66.7106 78.5141 69.0321 76.1984 69.8964M31.833 64.993L34.6587 68.3174M34.6587 68.3174C35.5729 67.6248 37.8168 66.6552 39.4789 68.3174C41.1411 69.9795 40.1715 72.5004 39.4789 73.5531M34.6587 68.3174L31.833 71.143C31.1958 72.0018 30.3038 74.1017 31.833 75.6308C33.3622 77.16 35.4066 76.9883 36.2377 76.7112M39.4789 73.5531L36.2377 76.7112M39.4789 73.5531C40.4208 72.8606 42.7201 71.891 44.3823 73.5531C45.7156 74.8865 45.5694 76.5585 45.1877 77.6254M36.2377 76.7112C35.9884 77.3484 35.8388 79.0549 37.235 80.7835C38.6312 82.5122 40.6424 82.0024 41.4735 81.5315M41.4735 81.5315L44.8809 78.2903C44.9851 78.1149 45.0935 77.8886 45.1877 77.6254M41.4735 81.5315C41.1411 82.3349 40.8087 84.6065 42.1384 85.9362C43.4681 87.2659 45.7951 86.7673 46.7924 86.518L47.0417 86.2745M50.3661 83.0274C50.6708 82.1133 50.9644 79.9691 49.7012 78.7058C48.438 77.4426 46.1658 77.4592 45.1877 77.6254M50.3661 83.0274L47.0417 86.2745M72.7221 8.47971L68.6498 1L64.4944 8.47971M72.7221 8.47971H64.4944M72.7221 8.47971V25.8492M64.4944 8.47971V25.8492M64.4944 25.8492H72.7221M64.4944 25.8492V28.1763C64.4944 29.3121 65.3255 31.5837 68.6498 31.5837C71.9741 31.5837 72.7498 29.3121 72.7221 28.1763V25.8492M15.627 78.5396C18.231 78.4842 23.4391 76.8442 23.4391 70.7275C23.4391 64.6107 18.231 63.137 15.627 63.1647C13.0229 63.3586 7.81484 65.1426 7.81484 70.7275C7.81484 76.3123 13.0229 78.2626 15.627 78.5396ZM18.2033 70.7275C18.1479 71.614 17.5551 73.3869 15.627 73.3869C13.6989 73.3869 13.1614 71.614 13.1337 70.7275C13.1892 69.8964 13.7654 68.2342 15.627 68.2342C17.4886 68.2342 18.1202 69.8964 18.2033 70.7275Z" stroke="#242223" stroke-width="1.5" stroke-linecap="round" stroke-linejoin="round"/>
</svg>
