<svg width="146" height="103" viewBox="0 0 146 103" fill="none" xmlns="http://www.w3.org/2000/svg">
<path d="M41.5061 34.8884L52.2592 28.0486L60.7408 22.6536C62.125 21.7732 63.8932 21.7829 65.2677 22.6786L103.09 47.3232C104.281 48.0996 105 49.4287 105 50.8548V75.284V97.8832C105 100.157 103.164 102 100.9 102H57.8917H24.1933C21.8774 102 20 100.115 20 97.7898V50.8848C20 49.4423 20.7355 48.1002 21.9492 47.3283L30.7531 41.7283" stroke="#242223" stroke-width="1.5"/>
<path d="M122 58.9998V45.8548C122 44.4287 121.281 43.0995 120.09 42.3232L83.6702 18.5924C82.7729 18.0077 81.6786 17.8073 80.6323 18.036L62.5 21.9998" stroke="#242223" stroke-width="1.5"/>
<path d="M99 98V56.105C99 54.5488 98.2276 53.0937 96.9381 52.2203L62.6566 29L28.0618 52.2203C26.7722 53.0937 26 54.5488 26 56.105V98" stroke="#242223" stroke-width="1.5" stroke-linecap="round" stroke-linejoin="round"/>
<path d="M49 39L49 69.1277L49 90.7819L49 98" stroke="#242223" stroke-width="1.5" stroke-linecap="round"/>
<path d="M74 82L74 90.1702L74 96.0426L74 98" stroke="#242223" stroke-width="1.5" stroke-linecap="round"/>
<path d="M74 43L74 58.3192L74 69.3298L74 73" stroke="#242223" stroke-width="1.5" stroke-linecap="round"/>
<path d="M26 66H99" stroke="#242223" stroke-width="1.5"/>
<path d="M3.29132 13.5598L0.908504 12.9575C0.516229 12.8554 0.121037 13.0931 0.0233324 13.4854C-0.0743719 13.8763 0.161868 14.2715 0.551227 14.3692L2.9355 14.9715C3.17758 15.0327 3.38173 15.1844 3.51006 15.4002C3.63839 15.6146 3.67485 15.8669 3.6136 16.1104L3.01133 18.4948C2.91363 18.8856 3.14987 19.2808 3.53923 19.3785C3.9315 19.4762 4.32669 19.24 4.4244 18.8506L5.02667 16.4677C5.12291 16.0827 5.12437 15.689 5.0325 15.3142L8.22612 13.3731C8.73943 13.9433 9.42773 14.3502 10.2064 14.5092V18.2935C9.83897 18.4073 9.5021 18.6114 9.22212 18.89L7.48385 20.6268C7.19949 20.9112 7.19949 21.3735 7.48385 21.6578C7.76822 21.9422 8.23049 21.9422 8.51485 21.6578L10.2531 19.921C10.606 19.5652 11.2243 19.5652 11.5787 19.921L13.3169 21.6578C13.4599 21.8008 13.6465 21.8708 13.8332 21.8708C14.0198 21.8708 14.2065 21.7993 14.3494 21.6578C14.6338 21.3735 14.6338 20.9112 14.3494 20.6268L12.6126 18.89C12.3428 18.6202 12.0205 18.4218 11.6676 18.3066V14.5077C12.4405 14.3502 13.1259 13.9463 13.6378 13.3833L16.8737 15.3156C16.7833 15.689 16.7833 16.0812 16.881 16.4648L17.4832 18.8491C17.5809 19.24 17.9805 19.4791 18.3684 19.377C18.7592 19.2793 18.9955 18.8827 18.8963 18.4933L18.294 16.1075C18.2328 15.8654 18.2692 15.6131 18.3976 15.3987C18.5259 15.1844 18.7301 15.0312 18.9736 14.97L21.3564 14.3677C21.7472 14.27 21.9835 13.8733 21.8843 13.484C21.7866 13.0917 21.3899 12.8554 20.9991 12.9561L18.6163 13.5583C18.2459 13.6502 17.9105 13.8281 17.6305 14.0717L14.3815 12.1321C14.5113 11.7573 14.5827 11.3563 14.5827 10.9377C14.5827 10.5046 14.5069 10.0905 14.3684 9.70401L17.5999 7.77612C17.8857 8.03424 18.2328 8.2209 18.6163 8.31569L20.9991 8.91798C21.387 9.01569 21.7851 8.7809 21.8843 8.39007C21.982 7.99924 21.7458 7.60403 21.3564 7.50633L18.9721 6.90404C18.7286 6.84279 18.5259 6.69113 18.3961 6.4753C18.2678 6.26092 18.2313 6.00864 18.2926 5.7651L18.8948 3.38075C18.9925 2.98992 18.7563 2.59471 18.3669 2.49701C17.9703 2.39492 17.5795 2.63555 17.4818 3.02492L16.8795 5.40781C16.7862 5.77822 16.7818 6.15738 16.8635 6.51905L13.6086 8.46153C13.0997 7.9132 12.4259 7.52091 11.6662 7.36633V3.56595C12.0191 3.45075 12.3414 3.25241 12.6111 2.98263L14.3494 1.24577C14.6338 0.961396 14.6338 0.499109 14.3494 0.214737C14.065 -0.0696347 13.6028 -0.0696347 13.3184 0.214737L11.5801 1.95159C11.2272 2.30742 10.6089 2.30742 10.2546 1.95159L8.51631 0.213279C8.23195 -0.071093 7.76968 -0.071093 7.48531 0.213279C7.20095 0.497651 7.20095 0.959938 7.48531 1.24431L9.22212 2.98117C9.5021 3.26116 9.83897 3.46387 10.2079 3.57762V7.36341C9.44377 7.51945 8.76422 7.91612 8.25528 8.47028L5.04271 6.51905C5.12437 6.15738 5.12145 5.77676 5.02667 5.40635L4.4244 3.022C4.32669 2.63117 3.93004 2.39346 3.53923 2.49409C3.14841 2.5918 2.91217 2.98846 3.01133 3.37783L3.6136 5.76364C3.67485 6.00572 3.63839 6.25801 3.51006 6.47238C3.38173 6.68675 3.17758 6.83988 2.93404 6.90113L0.551227 7.50341C0.16041 7.60112 -0.0758302 7.99778 0.0233324 8.38715C0.122495 8.7809 0.520603 9.01715 0.908504 8.91506L3.29132 8.31278C3.67485 8.21799 4.02046 8.03278 4.30482 7.77612L7.50135 9.71714C7.36574 10.0978 7.29136 10.5075 7.29136 10.9348C7.29136 11.3475 7.3599 11.7442 7.48677 12.1146L4.2742 14.0688C3.99421 13.8252 3.66026 13.6502 3.29132 13.5569V13.5598ZM10.937 8.75027C11.6778 8.75027 13.1245 9.19944 13.1245 10.9377C13.1245 12.6761 11.6881 13.1252 10.937 13.1252C9.73105 13.1252 8.74964 12.1438 8.74964 10.9377C8.74964 9.73172 9.73105 8.75027 10.937 8.75027ZM33.5403 8.02111C33.5403 6.01009 31.9041 4.37532 29.8946 4.37532C28.2817 4.37532 26.6966 5.42093 26.2081 6.80633C26.0739 7.1855 25.6583 7.38383 25.2777 7.25112C24.8985 7.11696 24.6988 6.69988 24.8329 6.31926C25.53 4.34761 27.6591 2.917 29.896 2.917C32.7105 2.917 35 5.20656 35 8.02111C35 10.8357 32.7105 13.1252 29.896 13.1252H25.5212C25.1187 13.1252 24.7921 12.7986 24.7921 12.3961C24.7921 11.9936 25.1187 11.6669 25.5212 11.6669H29.896C31.9055 11.6669 33.5403 10.0321 33.5403 8.02111ZM34.9985 22.6043C34.9985 25.4188 32.7091 27.7084 29.8946 27.7084C27.6576 27.7084 25.5285 26.2778 24.8315 24.3062C24.6973 23.9255 24.8971 23.5085 25.2762 23.3743C25.6568 23.2387 26.0725 23.4399 26.2066 23.8191C26.6951 25.2045 28.2803 26.2501 29.8931 26.2501C31.9026 26.2501 33.5388 24.6153 33.5388 22.6043C33.5388 20.5933 31.9026 18.9585 29.8931 18.9585H22.6018C22.1993 18.9585 21.8726 18.6318 21.8726 18.2293C21.8726 17.8268 22.1993 17.5002 22.6018 17.5002H29.8931C32.7076 17.5002 34.9985 19.7897 34.9985 22.6043ZM21.8741 29.8959C21.8741 32.7104 19.5846 35 16.7701 35C14.5331 35 12.4041 33.5694 11.707 31.5977C11.5729 31.2171 11.7726 30.8 12.1518 30.6659C12.5339 30.5317 12.948 30.7315 13.0822 31.1107C13.5707 32.4961 15.1558 33.5417 16.7687 33.5417C18.7782 33.5417 20.4144 31.9069 20.4144 29.8959C20.4144 27.8849 18.7782 26.2501 16.7687 26.2501H0.729136C0.326653 26.2501 0 25.9234 0 25.5209C0 25.1184 0.326653 24.7918 0.729136 24.7918H16.7701C19.5846 24.7918 21.8741 27.0813 21.8741 29.8959Z" fill="#242223"/>
<path d="M143.084 85.6945V73.5628C143.084 69.9447 140.139 67.0004 136.521 67.0004C132.903 67.0004 129.959 69.9447 129.959 73.5628V85.6945C128.102 87.481 127.042 89.9499 127.042 92.5209C127.042 97.7475 131.295 102 136.521 102C141.748 102 146 97.7475 146 92.5209C146 89.9499 144.94 87.481 143.084 85.6945ZM136.521 100.542C132.1 100.542 128.501 96.9426 128.501 92.5209C128.501 90.2547 129.475 88.0804 131.175 86.555C131.328 86.4164 131.417 86.2195 131.417 86.0125V73.5628C131.417 70.7482 133.707 68.4587 136.521 68.4587C139.336 68.4587 141.625 70.7482 141.625 73.5628V86.0125C141.625 86.2195 141.714 86.4164 141.868 86.555C143.568 88.0804 144.542 90.2547 144.542 92.5209C144.542 96.9426 140.943 100.542 136.521 100.542ZM125.584 77.9377C125.584 76.1761 124.33 74.7047 122.667 74.3649V70.563C123.013 70.4507 123.338 70.2568 123.612 69.9826L125.349 68.2443C125.634 67.9599 125.634 67.4977 125.349 67.2133C125.065 66.9289 124.602 66.9289 124.318 67.2133L122.581 68.9501C122.217 69.3162 121.619 69.3147 121.254 68.9501L119.517 67.2133C119.233 66.9289 118.771 66.9289 118.486 67.2133C118.202 67.4977 118.202 67.9599 118.486 68.2443L120.223 69.9826C120.508 70.267 120.849 70.4653 121.209 70.5747V74.3634C120.445 74.5195 119.765 74.9147 119.255 75.4688L116.042 73.5176C116.124 73.1618 116.124 72.7826 116.028 72.4049L115.425 70.022C115.328 69.6326 114.934 69.3935 114.542 69.4941C114.149 69.5933 113.913 69.9899 114.014 70.3793L114.616 72.7622C114.741 73.2638 114.437 73.7743 113.935 73.9011L111.552 74.5034C111.16 74.6026 110.923 74.9978 111.024 75.3886C111.12 75.778 111.513 76.0142 111.908 75.9165L114.291 75.3142C114.682 75.2165 115.024 75.0269 115.303 74.7747L118.501 76.7171C118.365 77.0978 118.291 77.5075 118.291 77.9348C118.291 78.3475 118.359 78.7442 118.488 79.1146L115.272 81.0673C114.998 80.8296 114.665 80.6502 114.289 80.5554L111.906 79.9531C111.511 79.8525 111.119 80.0917 111.023 80.4811C110.923 80.8719 111.16 81.2685 111.551 81.3663L113.933 81.9685C114.435 82.0954 114.74 82.6058 114.614 83.106L114.012 85.4889C113.913 85.8798 114.149 86.2764 114.54 86.3741C114.934 86.4762 115.326 86.2356 115.424 85.8462L116.026 83.4619C116.125 83.071 116.121 82.6773 116.03 82.3098L119.226 80.3688C119.739 80.939 120.427 81.3458 121.206 81.5048V85.2935C120.846 85.4043 120.506 85.6027 120.22 85.887L118.483 87.6239C118.199 87.9083 118.199 88.3706 118.483 88.6549C118.768 88.9393 119.23 88.9393 119.514 88.6549L121.251 86.9181C121.616 86.5535 122.214 86.5535 122.578 86.9181L124.315 88.6549C124.458 88.7978 124.645 88.8678 124.831 88.8678C125.018 88.8678 125.205 88.7964 125.348 88.6549C125.632 88.3706 125.632 87.9083 125.348 87.6239L123.611 85.887C123.335 85.6129 123.011 85.4189 122.666 85.3066V81.5048C124.328 81.1665 125.582 79.6936 125.582 77.9319L125.584 77.9377ZM121.938 80.1252C120.732 80.1252 119.751 79.1438 119.751 77.9377C119.751 76.7317 120.732 75.7503 121.938 75.7503C123.144 75.7503 124.126 76.7317 124.126 77.9377C124.126 79.1438 123.144 80.1252 121.938 80.1252ZM137.25 88.9481V77.9377C137.25 77.5353 136.924 77.2086 136.521 77.2086C136.119 77.2086 135.792 77.5353 135.792 77.9377V88.9481C134.13 89.2864 132.876 90.7607 132.876 92.5209C132.876 94.532 134.51 96.1667 136.521 96.1667C138.532 96.1667 140.167 94.532 140.167 92.5209C140.167 90.7607 138.913 89.2864 137.25 88.9481ZM136.521 94.7084C135.315 94.7084 134.334 93.727 134.334 92.5209C134.334 91.3149 135.315 90.3335 136.521 90.3335C137.727 90.3335 138.709 91.3149 138.709 92.5209C138.709 93.727 137.727 94.7084 136.521 94.7084Z" fill="#242223"/>
</svg>
