<svg width="118" height="102" viewBox="0 0 118 102" fill="none" xmlns="http://www.w3.org/2000/svg">
<g clip-path="url(#clip0_94_3674)">
<path d="M1.5 101C1.5 88.5616 1.5 69.1493 1.5 69.1493M1.5 101C27.7008 84.7459 66.517 60.6657 76.958 54.1882C78.603 53.1676 80.662 53.206 82.286 54.2592L105.25 69.1493M1.5 101C18.3414 101 44.625 101 44.625 101M1.5 69.1493V40.0786C1.5 38.3499 2.393 36.7438 3.8614 35.8315L51.3293 6.34027C52.9618 5.32603 55.0311 5.33726 56.6525 6.36917L79.625 20.9898M1.5 69.1493L21.0312 57.1095L25.9141 54.0995M105.25 69.1493V40.0432C105.25 38.3338 104.377 36.7428 102.935 35.825L79.625 20.9898M105.25 69.1493V96.092M44.625 101H103.25C104.355 101 105.25 100.105 105.25 99V96.092M44.625 101L53.375 95.9387M79.625 20.9898L60.094 33.0297L50.3281 39.0496L45.4453 42.0596L40.5625 45.0696L38.1211 46.5746M105.25 96.092L82.15 82.2657C80.591 81.3331 78.65 81.3186 77.078 82.2278L70.875 85.816L62.125 90.8773M30.7969 51.0895L33.2383 49.5845" stroke="#242223" stroke-width="1.5" stroke-linecap="round"/>
<path d="M53 5.49997L68.142 1.24127C68.688 1.08768 69.274 1.17322 69.753 1.47658L114.174 29.5892C115.622 30.5058 116.5 32.1003 116.5 33.8142V46.8589M105 101L115.512 94.8312C116.124 94.4721 116.5 93.8157 116.5 93.1063V78.454M116.5 62.6564V54.7577" stroke="#242223" stroke-width="1.5" stroke-linecap="round"/>
</g>
<defs>
<clipPath id="clip0_94_3674">
<rect width="117" height="102" fill="white" transform="translate(0.5)"/>
</clipPath>
</defs>
</svg>
