<svg width="89" height="102" viewBox="0 0 89 102" fill="none" xmlns="http://www.w3.org/2000/svg">
<g clip-path="url(#clip0_88_3961)">
<path d="M82.19 22.875L86.603 25.4226C87.221 25.7799 87.603 26.4402 87.603 27.1547V74.8453C87.603 75.5598 87.221 76.2201 86.603 76.5774L45.301 100.423C44.682 100.78 43.9201 100.78 43.3013 100.423L2 76.5773C1.3812 76.2201 1 75.5598 1 74.8453V63.5M71.365 16.625L65.952 13.5L45.301 1.57734C44.682 1.22007 43.9201 1.22007 43.3013 1.57734L2 25.4226C1.3812 25.7799 1 26.4402 1 27.1547V32.25M1 51V44.75" stroke="#242223" stroke-width="1.5" stroke-linecap="round"/>
<path d="M1.30078 26L43.0331 48.9303C43.6726 49.2817 44.0705 49.9534 44.0705 50.6831V100.461" stroke="#242223" stroke-width="1.5"/>
<path d="M44.8622 73.2837C58.7205 73.2837 69.9549 62.0493 69.9549 48.191C69.9549 34.3327 58.7205 23.0983 44.8622 23.0983C31.0039 23.0983 19.7695 34.3327 19.7695 48.191C19.7695 62.0493 31.0039 73.2837 44.8622 73.2837Z" fill="white" stroke="#242223" stroke-width="1.5"/>
<path d="M28.164 59.4269C25.9332 56.179 24.6367 52.3 24.6367 48.1336C24.6367 45.8305 25.0329 43.6152 25.764 41.5458C26.4858 39.5028 27.5341 37.602 28.8501 35.8992M37.0293 29.4537C38.4392 28.812 39.9329 28.3099 41.4907 27.9662" stroke="#242223" stroke-width="1.5"/>
<path d="M37.8075 46.4785L45.1848 32.9811C45.3598 32.6603 45.6968 32.4607 46.0618 32.4607H49.5138C50.3388 32.4607 50.8098 33.4033 50.3128 34.0623L43.4484 43.1776C42.9521 43.8366 43.4223 44.7792 44.2468 44.7792H50.8758C51.6718 44.7792 52.1488 45.6631 51.7118 46.3281L39.4189 65.045L47.8938 49.4352C48.2558 48.7689 47.7728 47.9581 47.0148 47.9581H38.685C37.9256 47.9581 37.4433 47.1449 37.8075 46.4785Z" stroke="#242223" stroke-width="1.5"/>
</g>
<defs>
<clipPath id="clip0_88_3961">
<rect width="89" height="102" fill="white"/>
</clipPath>
</defs>
</svg>
