<svg width="187" height="114" viewBox="0 0 187 114" fill="none" xmlns="http://www.w3.org/2000/svg">
<g clip-path="url(#clip0_94_3752)">
<path d="M26.6431 21.2997L39.4647 13.1769L49.5779 6.76989C51.2284 5.7243 53.3367 5.73584 54.9756 6.79949L100.073 36.067C101.494 36.989 102.351 38.5675 102.351 40.2611V69.2727V96.1111C102.351 98.8111 100.162 101 97.462 101H46.1807H6C3.23858 101 1 98.7611 1 96.0001V40.2967C1 38.5836 1.87703 36.9897 3.32415 36.073L13.8216 29.4226" stroke="#242223" stroke-width="1.5"/>
<path d="M94.828 96.0001V46.4143C94.828 44.5724 93.9149 42.8502 92.3905 41.8164L51.8647 14.3335L10.9686 41.8164C9.44415 42.8502 8.53125 44.5724 8.53125 46.4143V96.0001" stroke="#242223" stroke-width="1.5" stroke-linecap="round" stroke-linejoin="round"/>
<path d="M49.85 5.76508C49.4441 5.84806 49.1824 6.24428 49.2654 6.65008C49.3484 7.05598 49.7446 7.31768 50.1504 7.23468L49.85 5.76508ZM122.329 44.4999C122.329 44.9141 122.665 45.2499 123.079 45.2499C123.493 45.2499 123.829 44.9141 123.829 44.4999H122.329ZM50.1504 7.23468L75.0554 2.14233L74.7549 0.672728L49.85 5.76508L50.1504 7.23468ZM102.47 18.33L120.377 29.8422L121.189 28.5804L103.281 17.0682L102.47 18.33ZM78.205 2.73117L102.47 18.33L103.281 17.0682L79.0161 1.4694L78.205 2.73117ZM122.329 33.4172V44.4999H123.829V33.4172H122.329ZM120.377 29.8422C121.594 30.6242 122.329 31.971 122.329 33.4172H123.829C123.829 31.4606 122.834 29.6384 121.189 28.5804L120.377 29.8422ZM75.0554 2.14233C76.1418 1.92017 77.2721 2.13149 78.205 2.73117L79.0161 1.4694C77.754 0.658068 76.2248 0.372168 74.7549 0.672728L75.0554 2.14233Z" fill="#242223"/>
<path d="M51.3082 14.8889V54.889V83.639V93.2223M24.0859 33.5926V48.5001M24.0859 93.2223V63.4075M78.5304 33.5926V63.4075M78.5304 93.2223V78.3149" stroke="#242223" stroke-width="1.5" stroke-linecap="round"/>
<path d="M112.725 61.9359L139.654 44.8757C141.057 43.9869 142.849 43.9967 144.242 44.9008L170.475 61.9254C171.683 62.7091 172.411 64.0509 172.411 65.4905V82.5471V99.2729C172.411 100.541 171.383 101.57 170.115 101.57H138.156H115C112.653 101.57 110.75 99.6669 110.75 97.3194V65.526C110.75 64.0699 111.495 62.7152 112.725 61.9359Z" stroke="#242223" stroke-width="1.5"/>
<path d="M141.178 43.0791C140.775 43.1753 140.526 43.5799 140.623 43.9828C140.719 44.3857 141.123 44.6343 141.526 44.5381L141.178 43.0791ZM170.796 100.954C170.425 101.137 170.271 101.586 170.454 101.958C170.636 102.33 171.086 102.483 171.458 102.3L170.796 100.954ZM160.492 42.9437C160.84 43.1677 161.304 43.0668 161.528 42.7184C161.752 42.37 161.651 41.9059 161.303 41.682L160.492 42.9437ZM173.894 49.7762C173.546 49.5522 173.082 49.6531 172.858 50.0015C172.634 50.3499 172.734 50.814 173.083 51.038L173.894 49.7762ZM141.526 44.5381L155.401 41.2246L155.053 39.7657L141.178 43.0791L141.526 44.5381ZM185.329 61.2311V91.1699H186.829V61.2311H185.329ZM182.953 94.9847L170.796 100.954L171.458 102.3L183.614 96.3312L182.953 94.9847ZM178.479 54.5069L183.378 57.6561L184.189 56.3943L179.29 53.2452L178.479 54.5069ZM174.882 52.1943L178.479 54.5069L179.29 53.2452L175.693 50.9325L174.882 52.1943ZM158.687 41.7834L160.492 42.9437L161.303 41.682L159.498 40.5216L158.687 41.7834ZM173.083 51.038L174.882 52.1943L175.693 50.9325L173.894 49.7762L173.083 51.038ZM185.329 91.1699C185.329 92.7906 184.408 94.2703 182.953 94.9847L183.614 96.3312C185.582 95.3646 186.829 93.3627 186.829 91.1699H185.329ZM186.829 61.2311C186.829 59.2746 185.835 57.4523 184.189 56.3943L183.378 57.6561C184.594 58.4381 185.329 59.785 185.329 61.2311H186.829ZM155.401 41.2246C156.527 40.9559 157.713 41.1577 158.687 41.7834L159.498 40.5216C158.181 39.675 156.576 39.402 155.053 39.7657L155.401 41.2246Z" fill="#242223"/>
<path d="M8 58H95" stroke="#242223" stroke-width="1.5"/>
</g>
<defs>
<clipPath id="clip0_94_3752">
<rect width="187" height="102" fill="white"/>
</clipPath>
</defs>
</svg>
