<svg width="153" height="114" viewBox="0 0 153 114" fill="none" xmlns="http://www.w3.org/2000/svg">
<g clip-path="url(#clip0_94_3709)">
<path d="M98.616 1H32.7008C32.1486 1 31.7008 1.44772 31.7008 2V56.7803M98.616 1V101M98.616 1H110.349C110.636 1 110.91 1.12365 111.1 1.3394L151.751 47.5375C151.911 47.7201 152 47.955 152 48.1981V100C152 100.552 151.552 101 151 101H98.616M31.7008 56.7803H53.2451C53.7974 56.7803 54.2451 57.2281 54.2451 57.7803V87.8037C54.2451 88.356 54.6928 88.8037 55.2451 88.8037H88.912C89.464 88.8037 89.912 88.356 89.912 87.8037V35.526C89.912 34.9737 89.464 34.526 88.912 34.526H31.7008M31.7008 56.7803H19.0693C18.7599 56.7803 18.4678 56.9236 18.2785 57.1684L1.2091 79.2274C1.0736 79.4026 1 79.6178 1 79.8394V101M98.616 101H89.912H51.0127M51.0127 101V62.4526C51.0127 61.9003 50.5649 61.4526 50.0127 61.4526H44.3949C44.0458 61.4526 43.7219 61.6347 43.5405 61.933L31.8464 81.1638C31.7512 81.3203 31.7008 81.5001 31.7008 81.6833V101M51.0127 101H31.7008M103.258 15.4509V5.46821C103.258 4.91592 103.705 4.46821 104.258 4.46821H108.022C108.313 4.46821 108.589 4.59488 108.779 4.81518L147.115 49.2735C147.272 49.455 147.358 49.6868 147.358 49.9265V97.11C147.358 97.662 146.91 98.11 146.358 98.11H134.592M103.258 15.4509L110.801 23.6611M103.258 15.4509V56.7803M134.592 98.11H123.567M134.592 98.11V56.7803M110.801 23.6611L123.567 37.5553M110.801 23.6611V60.8855V79.4977V88.8037V98.11M103.258 56.7803V97.11C103.258 97.662 103.705 98.11 104.258 98.11H110.801M103.258 56.7803H134.592M123.567 98.11V37.5553M123.567 98.11H110.801M134.592 56.7803V49.9446C134.592 49.694 134.498 49.4525 134.328 49.268L123.567 37.5553M31.7008 101H19.5787C19.0264 101 18.5787 100.552 18.5787 100V82.4031C18.5787 81.8509 18.131 81.4031 17.5787 81.4031H7.9335C7.3812 81.4031 6.9335 81.8509 6.9335 82.4031V101" stroke="#242223" stroke-width="1.5" stroke-linecap="round" stroke-linejoin="round"/>
<path d="M40.8633 8.89233H76.7757M81.4607 8.89233H94.3417" stroke="#242223" stroke-width="1.5" stroke-linecap="round" stroke-linejoin="round"/>
</g>
<defs>
<clipPath id="clip0_94_3709">
<rect width="153" height="102" fill="white"/>
</clipPath>
</defs>
</svg>
