<svg width="92" height="115" viewBox="0 0 92 115" fill="none" xmlns="http://www.w3.org/2000/svg">
<path d="M26.5 20L5.03793 24.2082C2.6921 24.6682 1 26.7243 1 29.1148V48M26.5 20V48M26.5 20L42 23.3696M26.5 88V68M26.5 88L7.05419 92.1942C3.93985 92.8659 1 90.4926 1 87.3066V68M26.5 88L45.2105 92.5M66 97.5L86.9806 93.3039C89.3177 92.8365 91 90.7844 91 88.401V70M66 97.5V70M66 97.5L55.5 94.9747M78 27.5L85.0558 26.1431C88.1394 25.5501 91 27.913 91 31.0532V70M66 56V70M1 48H26.5M1 48V68M26.5 48V68M26.5 68H1M66 70H91" stroke="black" stroke-width="1.5" stroke-linecap="round" stroke-linejoin="round"/>
<path d="M62 39.4839C56.7566 40.6508 53 43.7993 53 47.5002C53 52.1946 59.0442 56.0002 66.5 56.0002C73.9558 56.0002 80 52.1946 80 47.5002C80 43.918 76.4805 40.8534 71.5 39.6023" stroke="black" stroke-width="1.5" stroke-linecap="round" stroke-linejoin="round"/>
<circle cx="66" cy="17" r="8.25" stroke="black" stroke-width="1.5" stroke-linecap="round" stroke-linejoin="round"/>
<path d="M66 47C66.1579 47 66.3025 46.9117 66.3747 46.7713L74.18 31.5494C74.574 30.7811 75.1706 30.141 75.8507 29.609C79.594 26.6804 82 22.1212 82 17C82 8.16344 74.8366 1 66 1C57.1634 1 50 8.16344 50 17C50 22.1212 52.406 26.6804 56.1493 29.609C56.8294 30.141 57.426 30.7811 57.82 31.5494L65.6253 46.7713C65.6975 46.9117 65.8421 47 66 47Z" stroke="black" stroke-width="1.5" stroke-linecap="round" stroke-linejoin="round"/>
</svg>
