<svg width="89" height="102" viewBox="0 0 89 102" fill="none" xmlns="http://www.w3.org/2000/svg">
<g clip-path="url(#clip0_96_3834)">
<path d="M82.19 22.8749L86.603 25.4225C87.221 25.7798 87.603 26.4401 87.603 27.1546V74.8452C87.603 75.5597 87.221 76.22 86.603 76.5773L45.301 100.423C44.682 100.78 43.9201 100.78 43.3013 100.423L2 76.5772C1.3812 76.22 1 75.5597 1 74.8452V63.4999M71.365 16.6249L65.952 13.4999L45.301 1.57728C44.682 1.22001 43.9201 1.22001 43.3013 1.57728L2 25.4225C1.3812 25.7798 1 26.4401 1 27.1546V32.2499M1 50.9999V44.7499" stroke="#242223" stroke-width="1.5" stroke-linecap="round"/>
<path d="M1.30078 26L22.1669 37.4652M44.0705 100.461V73.5" stroke="#242223" stroke-width="1.5"/>
<path d="M44.8622 73.2838C58.7205 73.2838 69.9549 62.0494 69.9549 48.1911C69.9549 34.3328 58.7205 23.0984 44.8622 23.0984C31.0039 23.0984 19.7695 34.3328 19.7695 48.1911C19.7695 62.0494 31.0039 73.2838 44.8622 73.2838Z" stroke="#242223" stroke-width="1.5"/>
<path d="M52.028 30.0108C55.7209 31.3848 59.0125 33.8123 61.4088 37.2207C62.7334 39.1048 63.6834 41.1449 64.2755 43.2582C64.86 45.3447 65.0957 47.5025 64.9984 49.6524M62.0144 59.6294C61.2301 60.9652 60.297 62.235 59.2203 63.4121" stroke="#242223" stroke-width="1.5"/>
<path d="M49 36V64H40.2782V45.8378H34V40.7676C36.4812 40.7676 38.3233 40.4775 39.5263 39.8973C40.7544 39.3171 41.5063 38.6991 41.782 38.0432C42.0576 37.3622 42.1955 36.6811 42.1955 36H49Z" stroke="#242223" stroke-width="1.5"/>
</g>
<defs>
<clipPath id="clip0_96_3834">
<rect width="89" height="102" fill="white"/>
</clipPath>
</defs>
</svg>
