<svg width="29" height="28" viewBox="0 0 29 28" fill="none" xmlns="http://www.w3.org/2000/svg">
<path d="M14.8496 2.33337C14.8496 2.33337 17.5726 2.58071 21.0364 6.04571C24.5014 9.51071 24.7488 12.2325 24.7488 12.2325M15.6744 6.45871C15.6744 6.45871 16.8294 6.78771 18.5619 8.52021C20.2944 10.2527 20.6246 11.4077 20.6246 11.4077" stroke="#242223" stroke-width="1.5" stroke-linecap="round"/>
<path d="M3.47746 8.07916C3.47125 7.96441 3.44251 7.852 3.39286 7.74835C3.34321 7.64471 3.27364 7.55186 3.18811 7.4751C3.10258 7.39835 3.00277 7.33919 2.89437 7.30101C2.78598 7.26283 2.67113 7.24637 2.55638 7.25257C2.44162 7.25878 2.32921 7.28753 2.22557 7.33717C2.12193 7.38682 2.02908 7.4564 1.95232 7.54193C1.87557 7.62746 1.81641 7.72727 1.77823 7.83566C1.74005 7.94405 1.72359 8.05891 1.72979 8.17366L3.47746 8.07916ZM4.60446 3.60732C4.45123 3.77665 4.37028 3.99918 4.37888 4.22738C4.38749 4.45558 4.48496 4.67138 4.6505 4.82869C4.81604 4.986 5.03652 5.07237 5.26486 5.06934C5.4932 5.06631 5.71132 4.97414 5.87263 4.81249L4.60446 3.60732ZM11.5415 23.114C11.6388 23.1767 11.7475 23.2195 11.8615 23.2398C11.9754 23.2602 12.0923 23.2578 12.2053 23.2327C12.3183 23.2076 12.4251 23.1603 12.5197 23.0936C12.6143 23.0269 12.6948 22.942 12.7563 22.844C12.8179 22.746 12.8594 22.6368 12.8785 22.5226C12.8976 22.4084 12.8938 22.2916 12.8674 22.1789C12.841 22.0662 12.7925 21.9599 12.7247 21.866C12.6569 21.7722 12.5712 21.6928 12.4725 21.6323L11.5415 23.114ZM16.732 23.401C16.5047 23.3535 16.2679 23.3982 16.0736 23.5253C15.8793 23.6525 15.7435 23.8516 15.696 24.0788C15.6485 24.3061 15.6932 24.5429 15.8203 24.7372C15.9474 24.9315 16.1465 25.0673 16.3738 25.1148L16.732 23.401ZM17.3526 18.1347L17.8835 17.5747L16.6141 16.3695L16.0833 16.9295L17.3526 18.1347ZM19.6323 17.339L21.8606 18.6223L22.7345 17.1057L20.505 15.8223L19.6323 17.339ZM22.2911 21.2823L20.6333 23.0265L21.9026 24.2328L23.5593 22.4875L22.2911 21.2823ZM8.85229 18.6188C4.33029 13.8577 3.57196 9.84083 3.47746 8.07916L1.72979 8.17366C1.84646 10.332 2.76113 14.7467 7.58413 19.824L8.85229 18.6188ZM10.4576 10.8757L10.7913 10.5233L9.52313 9.31816L9.18829 9.67049L10.4576 10.8757ZM11.055 6.13666L9.58379 4.05649L8.15463 5.06682L9.62463 7.14699L11.055 6.13666ZM9.82179 10.2725C9.61182 10.0701 9.39986 9.86985 9.18596 9.67166L9.18362 9.67399L9.18013 9.67749C9.15941 9.69892 9.13994 9.72152 9.12179 9.74516C9.00743 9.89653 8.91693 10.0645 8.85346 10.2433C8.73912 10.5642 8.67846 10.9888 8.75546 11.5185C8.90713 12.5592 9.58962 13.958 11.3711 15.8352L12.6405 14.6288C10.9745 12.8753 10.5638 11.7962 10.4868 11.2642C10.4495 11.0075 10.4868 10.8733 10.502 10.8302L10.5113 10.808C10.5017 10.8234 10.4908 10.8378 10.4786 10.8512C10.4718 10.8591 10.4648 10.868 10.4576 10.8757L9.82179 10.2725ZM11.3711 15.834C13.148 17.7053 14.4896 18.4403 15.5128 18.6072C16.039 18.6923 16.4648 18.6235 16.7868 18.4963C16.9656 18.4264 17.1319 18.3279 17.2791 18.2047L17.32 18.165L17.3363 18.1487C17.339 18.1464 17.3418 18.144 17.3445 18.1417L17.348 18.1382L17.3491 18.1358C17.3491 18.1358 17.3515 18.1347 16.7168 17.5315C16.0821 16.9295 16.0833 16.9283 16.0833 16.9272L16.0856 16.926L16.088 16.9225L16.095 16.9167C16.1126 16.8996 16.1309 16.8833 16.1498 16.8677C16.1603 16.8607 16.1591 16.863 16.144 16.8688C16.1206 16.8782 16.0156 16.9155 15.794 16.8793C15.325 16.8023 14.3123 16.3893 12.6405 14.6288L11.3711 15.834ZM9.58379 4.05649C8.40079 2.38349 6.03479 2.09999 4.60446 3.60732L5.87263 4.81249C6.48279 4.17082 7.55729 4.22099 8.15463 5.06682L9.58379 4.05649ZM20.6333 23.0265C20.3078 23.3695 19.9683 23.5538 19.637 23.5865L19.8085 25.3272C20.68 25.242 21.3858 24.7777 21.9026 24.2328L20.6333 23.0265ZM10.7913 10.5233C11.9206 9.33449 12 7.47483 11.055 6.13666L9.62579 7.14699C10.1181 7.84349 10.0423 8.77216 9.52313 9.31816L10.7913 10.5233ZM21.8606 18.6223C22.8185 19.1742 23.0063 20.5298 22.2911 21.2823L23.5593 22.4875C25.0818 20.8845 24.6385 18.2023 22.7345 17.1057L21.8606 18.6223ZM17.8835 17.5747C18.3326 17.101 19.0338 16.9948 19.6323 17.339L20.505 15.8223C19.2228 15.085 17.635 15.2962 16.6141 16.3695L17.8835 17.5747ZM12.4725 21.6323C11.3256 20.9113 10.1041 19.936 8.85229 18.6188L7.58413 19.824C8.93046 21.2415 10.264 22.3113 11.5415 23.114L12.4725 21.6323ZM19.6358 23.5865C18.664 23.6718 17.685 23.6093 16.732 23.401L16.3738 25.1148C17.5013 25.3591 18.6594 25.4306 19.8085 25.3272L19.6358 23.5865Z" fill="#242223"/>
</svg>
