<svg width="31" height="30" viewBox="0 0 31 30" fill="none" xmlns="http://www.w3.org/2000/svg">
<path fill-rule="evenodd" clip-rule="evenodd" d="M27.6408 3.05826C27.7881 3.08346 27.9256 3.14838 28.0387 3.24604C28.1517 3.34354 28.236 3.47004 28.2825 3.6119C28.329 3.75377 28.3358 3.90563 28.3024 4.05111L23.5422 24.7453C23.4799 25.0222 23.346 25.278 23.1539 25.4872C22.9619 25.6963 22.7184 25.8514 22.4477 25.937C22.2826 25.9902 22.1102 26.0175 21.9367 26.0179C21.5395 26.0176 21.1561 25.8721 20.8586 25.6089L15.986 21.3374L12.8641 24.5753C12.6372 24.8108 12.345 24.973 12.0253 25.0413C11.7055 25.1095 11.3726 25.0806 11.0693 24.9584C10.766 24.8361 10.5062 24.6259 10.3232 24.3549C10.1402 24.0839 10.0423 23.7644 10.0422 23.4374V16.3839L3.70003 15.1382C3.39565 15.0785 3.11888 14.9216 2.91127 14.6911C2.70367 14.4606 2.57645 14.169 2.54871 13.86C2.52097 13.5511 2.59422 13.2415 2.75744 12.9777C2.92067 12.7139 3.16507 12.5102 3.45393 12.3972L27.2032 3.10307C27.3422 3.04856 27.4936 3.03306 27.6408 3.05826ZM3.95432 13.7167C3.94984 13.7288 3.94984 13.7421 3.95432 13.7542L3.9719 13.7589L10.5824 15.0527L17.0854 10.3942C17.3927 10.1741 17.8191 10.236 18.0511 10.5345C18.2961 10.8499 18.2299 11.3058 17.9053 11.5385L11.875 15.8601L21.7809 24.5495C21.8122 24.5777 21.8504 24.5969 21.8917 24.6051C21.9329 24.6134 21.9756 24.6104 22.0153 24.5964C22.0542 24.585 22.0893 24.5632 22.1169 24.5336C22.1445 24.5039 22.1637 24.4673 22.1723 24.4277L26.5657 5.33197L22.5528 8.20777C22.2508 8.42427 21.8324 8.36834 21.5977 8.08009C21.3418 7.76566 21.404 7.30052 21.7336 7.06442L22.6879 6.3808L3.9719 13.7074C3.96556 13.7095 3.95962 13.7127 3.95432 13.7167ZM11.7322 23.6645C11.7777 23.6546 11.8193 23.6315 11.8516 23.598L14.9278 20.4035L11.4485 17.3566V23.4374C11.4489 23.484 11.4631 23.5293 11.4894 23.5678C11.5157 23.6062 11.5529 23.6359 11.5961 23.6531C11.6394 23.6703 11.6867 23.6743 11.7322 23.6645Z" fill="#242223"/>
</svg>
