<svg width="31" height="30" viewBox="0 0 31 30" fill="none" xmlns="http://www.w3.org/2000/svg">
<g clip-path="url(#clip0_14_2589)">
<path fill-rule="evenodd" clip-rule="evenodd" d="M2.55273 5.6543C1.61523 5.71289 0.853516 6.15234 0.853516 7.26562C0.853516 7.55859 0.912109 7.88086 1 8.11523C4.19336 17.1094 8.73438 24.3164 13.8027 24.3164H16.6738L17.084 24.2871C17.7871 24.1406 18.168 23.584 18.3145 23.0566L18.4023 22.5586C18.4948 22.1624 18.5813 21.7662 18.6672 21.3727C18.7686 20.9082 18.8692 20.4475 18.9778 19.9949C18.9829 19.9737 19.0076 19.964 19.0258 19.9761C19.1735 20.0739 19.2358 20.1151 19.3984 20.332C19.6764 20.6817 19.9543 21.034 20.233 21.3875C20.8652 22.1891 21.5017 22.9961 22.1523 23.7891C22.4453 24.082 22.8555 24.3457 23.3535 24.3457C23.3975 24.3457 23.4341 24.3384 23.4707 24.3311C23.5073 24.3237 23.5439 24.3164 23.5879 24.3164H28.041L28.5391 24.2871C29.418 24.1992 30.3262 23.6426 30.3262 22.6758C30.3262 22.3535 30.209 21.9727 29.9746 21.6504L25.6973 16.2598C25.5508 16.084 25.4629 15.9082 25.4629 15.7324C25.4629 15.5273 25.5508 15.3223 25.7266 15.0879C25.9085 14.815 26.1254 14.5211 26.3651 14.2101C26.5943 13.9127 26.5167 13.4809 26.1946 13.2879C25.9269 13.1275 25.581 13.1901 25.3904 13.4372C25.1337 13.7701 24.8992 14.0877 24.7012 14.3848C24.4082 14.7949 24.2324 15.2637 24.2324 15.7324C24.2324 16.1719 24.3789 16.6113 24.7305 17.0508L28.9785 22.3535C29.0371 22.4414 29.0664 22.5586 29.0664 22.6465C29.0664 22.9395 28.6562 23.0859 28.1875 23.0859H23.3535C23.2363 23.0859 23.0605 23.0273 22.8555 22.7051L20.3652 19.541C20.0137 19.1309 19.4863 18.6914 18.9297 18.6914C18.666 18.6914 18.4023 18.7793 18.168 19.0137C17.986 19.1957 17.8963 19.4008 17.7965 19.6289C17.7709 19.6874 17.751 19.7482 17.7375 19.8106L17.2012 22.2949C17.1813 22.361 17.1675 22.4376 17.1532 22.5165C17.1041 22.7873 17.05 23.0859 16.7324 23.0859H13.8027C9.99414 23.0859 5.98047 17.666 2.78711 9.4043L2.20027 7.83939C2.18137 7.78899 2.16624 7.73725 2.15742 7.68415C2.13366 7.54101 2.11328 7.35364 2.11328 7.20703C2.11328 7.18095 2.11271 7.15716 2.11219 7.13547C2.10742 6.93785 2.10685 6.91406 2.58203 6.91406L5.77212 6.93805C6.19555 6.94123 6.57108 7.21076 6.70959 7.61091L6.74219 7.70508C7.70898 10.4004 8.82227 12.2754 10.1406 14.2676C10.4336 14.7949 10.9316 15.1172 11.4883 15.1172C12.3086 15.1172 13.1582 14.4434 13.2461 13.418V8.26172C13.2461 7.95967 13.209 7.70528 13.1431 7.48859C12.9174 6.74653 12.8597 5.85489 13.635 5.83314C13.7077 5.8311 13.7831 5.83008 13.8613 5.83008L15.5312 5.77148C16.498 5.77148 16.8496 6.06445 16.8496 6.85547V13.5938C16.8496 14.4141 17.6992 14.8535 18.4609 14.8535C18.9332 14.8535 19.4054 14.6955 19.8277 14.3294C19.8742 14.2892 19.9145 14.2432 19.9509 14.1937C21.2652 12.41 23.0698 9.87667 23.7344 8.02734L23.8588 7.63323C23.8928 7.52565 23.9425 7.42248 24.0197 7.34025C24.1384 7.21389 24.2779 7.10844 24.4384 7.0239C24.551 6.96461 24.6786 6.94336 24.8059 6.94336H29.0057C29.1262 6.94336 29.2289 7.02868 29.2422 7.14844C29.2573 7.28419 29.2556 7.42235 29.2249 7.55544L29.1836 7.73438C29.1142 7.97905 29.019 8.2297 28.903 8.48451C28.6672 9.00233 28.8276 9.63223 29.3266 9.90555L29.4924 9.99638C29.4924 9.99638 30.3127 8.42049 30.4869 7.58042C30.498 7.52707 30.502 7.47262 30.502 7.41814V7.37768C30.502 7.3226 30.4971 7.26758 30.494 7.21259C30.4927 7.18841 30.4917 7.16195 30.4906 7.13351C30.4825 6.91666 30.47 6.58446 30.2676 6.26953C30.1211 6.00586 29.7988 5.71289 29.3594 5.71289L29.0664 5.68359H24.5254C24.4459 5.68359 24.3798 5.69709 24.3273 5.71492C24.2825 5.73013 24.2392 5.74925 24.195 5.76619C23.8154 5.9118 23.0709 6.33675 22.7676 6.94336C22.7597 6.95906 22.7519 6.97266 22.7446 6.98528C22.7401 6.99303 22.7359 7.00041 22.7319 7.00768C22.7047 7.05824 22.7047 7.11746 22.6928 7.17365C22.4043 8.54114 20.7151 11.0299 19.2227 13.125C18.9883 13.5059 18.6953 13.6523 18.4609 13.6523C18.1992 13.6523 18.0801 13.3518 18.0801 13.09V6.85547C18.0801 5.12695 16.8496 4.54102 15.502 4.54102L13.8613 4.57031C12.0793 4.57031 10.8048 5.19071 10.3699 6.40384C10.3531 6.45058 10.3314 6.4964 10.3227 6.54528C10.3164 6.58031 10.3164 6.61535 10.3164 6.65039C10.3164 6.94336 10.5215 7.23633 10.8438 7.29492C11.6641 7.41211 12.0156 7.5293 12.0156 8.26172L11.9871 13.1991C11.9866 13.286 11.9747 13.3726 11.9519 13.4564L11.9347 13.5193C11.9107 13.6076 11.8798 13.6975 11.8132 13.7603C11.741 13.8284 11.6586 13.8574 11.5762 13.8574C11.4297 13.8574 11.2832 13.7695 11.1953 13.5938C9.73047 11.3379 8.5 9.3457 7.50391 6.12305C7.41602 5.85938 7.18164 5.68359 6.91797 5.68359L2.55273 5.6543Z" fill="#242223"/>
</g>
<defs>
<clipPath id="clip0_14_2589">
<rect width="30" height="30" fill="white" transform="translate(0.765625)"/>
</clipPath>
</defs>
</svg>
